/* XPM */
static char * tile_xpm[] = {
"48 48 11 1",
" 	c #211F30",
".	c #E68D41",
"+	c #F2BC7E",
"@	c #FBDFB1",
"#	c #D2612F",
"$	c #B22E20",
"%	c #843346",
"&	c #A14744",
"*	c #732A3D",
"=	c #B96E54",
"-	c #963F3E",
"                                                ",
" .++++++++++++++++++++++++++++++++++++++++++++@ ",
" #............................................+ ",
" #.........#..................+............+..+ ",
" #...+...............#..............#.........+ ",
" #............................................+ ",
" #.........#....#..........#....#.........#...+ ",
" #...#.....#.+..#....#.....#....#....#....#.#.+ ",
" #.#.#.....$....$....#.....$....$.+..#....$...+ ",
" #...$.##..$#..#$.#..$..##.$#..#$....$....$#... ",
" $..#$.##..$ ##  #..#$..##.$ ##  #..#$.#..$ ##  ",
"  ##  #...# %  %% ##  #...# %  %% ##  #..# %  & ",
" *  %% ### %&%%&&%  %% ### %&%%&&%  %% ## %&%%= ",
" %%%&&%   %&&&&&&&%%&&%   %&&&&&&&%%&&%  %&&&&= ",
" %&&&&&%%%&&&&&&&&&&&&&%%%&&&&&&&&&&&&&%%&&&&&= ",
" %&&&&&&&&&&&&&&&&&&&&&&&&&&&&&&&&&&&&&&&&&&&&= ",
" %&&&&&&&&&&&&&&&&&&&&&&&&&&&&&&&&&&&&&&&&&&&&= ",
" %&&&&&&&&&&&&&&&&&&&&&&&&&&&&&&&&&&&&&&&&&&&&= ",
" *--&&&&&&&&&&------&&&&&&&&&&------&&&&&&&&&&& ",
" %&&--&&&&&&--&&&&&&--&&&&&&--&&&&&&--&&&&&&--= ",
" %&&&&------&&&&&&&&&&------&&&&&&&&&&------&&= ",
" *--&&&&&&&&&&------&&&&&&&&&&------&&&&&&&&&&& ",
" *----&&&&&&----------&&&&&&----------&&&&&&--& ",
" %&&----------&&&&&&----------&&&&&&----------= ",
" *--&&------&&------&&------&&------&&------&&& ",
" %&&--&&&&&&--&&&&&&--&&&&&&--&&&&&&--&&&&&&--= ",
" %&&&&------&&&&&&&&&&------&&&&&&&&&&------&&= ",
" %&&&&&&&&&&&&&&&&&&&&&&&&&&&&&&&&&&&&&&&&&&&&= ",
" %&&&&&&&&&&&&&&&&&&&&&&&&&&&&&&&&&&&&&&&&&&&&= ",
" %&&&&&&&&&&&&&&&&&&&&&&&&&&&&&&&&&&&&&&&&&&&&= ",
" %&&&&&&&&&&&&&&&&&&&&&&&&&&&&&&&&&&&&&&&&&&&&= ",
" %&&&&&&&&&&&&&&&&&&&&&&&&&&&&&&&&&&&&&&&&&&&&= ",
" %&&&&&&&&&&&&&&&&&&&&&&&&&&&&&&&&&&&&&&&&&&&&= ",
" %&&&&&&&&&%%&&&&&&&&&&&&&&&&&&&&&&&&&&&%&&&&&= ",
" *--&&&&&&%&&=------&&&&&&&&&&------&&&&=&&&&&& ",
" %&&--&&&&%&&=&&&&&&--&&&&&&--&&&&&&--&&&&&&--= ",
" %&&&&-----==&&&&&&&&&------&&&&&&&&&&------&&= ",
" *--&&&&&&&&&&------&&&&&&&&&&------&&&&&&&&&&& ",
" *----&&&&&&----------&&&&&&----------&&&&&&--& ",
" %&&----------&&&&&&----------&&&&&&----------= ",
" *--&&------&&------&&------&&------&&------&&& ",
" %&&--&&&&&&--&&&&&&--&&&&&&--&&&&&%%-&&&&&&--= ",
" %&&&&------&&&&&&&&&&------&&&&&&=&&%------&&= ",
" %&&&&&&&&&&&%&&&&&&&&&&&&&&&&&&&&=&&%&&&&&&&&= ",
" %&&&&&&&&&&&=&&&&&&&&&&&&&&&&&&&&&==&&&&&&&&&= ",
" %&&&&&&&&&&&&&&&&&&&&&&&&&&&&&&&&&&&&&&&&&&&&= ",
" *%%%%%%%%%%%%%%%%%%%%%%%%%%%%%%%%%%%%%%%%%%%%& ",
"                                                "};
