/* XPM */
static char *xpm_[] = {
/* columns rows colors chars-per-pixel */
"48 48 124 2 ",
"   c #76530F",
".  c #775410",
"X  c #7A5A1F",
"o  c #6C582E",
"O  c #745722",
"+  c #786337",
"@  c #7E6835",
"#  c #736443",
"$  c #7A6A47",
"%  c #895F11",
"&  c #865F18",
"*  c #91640D",
"=  c #956911",
"-  c #9A6D11",
";  c #A47312",
":  c #B27F1A",
">  c #896E39",
",  c #89743A",
"<  c #A37822",
"1  c #8C7742",
"2  c #957843",
"3  c #9A7D46",
"4  c #937A4C",
"5  c #83765A",
"6  c #947F58",
"7  c #BC8314",
"8  c #B7872C",
"9  c #A88A3B",
"0  c #D38E0F",
"q  c #CF9212",
"w  c #DB9C15",
"e  c #D29419",
"r  c #EE990F",
"t  c #F2970B",
"y  c #F29B0B",
"u  c #EF9B10",
"i  c #F19C13",
"p  c #FBA50F",
"a  c #EAA91B",
"s  c #F4A212",
"d  c #FBA610",
"f  c #F5AD17",
"g  c #FCAD15",
"h  c #F3A519",
"j  c #F5B017",
"k  c #FCB016",
"l  c #F5B11D",
"z  c #FBB51C",
"x  c #FDB91E",
"c  c #D7A12B",
"v  c #F3A623",
"b  c #F5B323",
"n  c #F9B622",
"m  c #F7B825",
"M  c #FBBA24",
"N  c #F3B62D",
"B  c #FAB62D",
"V  c #FBBB2A",
"C  c #F4AD31",
"Z  c #F6B332",
"A  c #F7BA35",
"S  c #FABD33",
"D  c #F4B13A",
"F  c #FABE3A",
"G  c #FCC135",
"H  c #FBC23B",
"J  c #95805A",
"K  c #9E875F",
"L  c #A28B4F",
"P  c #BB9B4B",
"I  c #9A8B6C",
"U  c #9C8E73",
"Y  c #9D927C",
"T  c #A08C68",
"R  c #A1947D",
"E  c #C8A342",
"W  c #C0A049",
"Q  c #D7B34D",
"!  c #E3BE52",
"~  c #E8BE51",
"^  c #EFC246",
"/  c #EDC24A",
"(  c #FCC543",
")  c #FCC847",
"_  c #FBC14F",
"`  c #FCC948",
"'  c #E3C25C",
"]  c #EAC55C",
"[  c #FAC654",
"{  c #F5CE52",
"}  c #F7C75C",
"|  c #FBCE5E",
" . c #F1CD62",
".. c #FBCF60",
"X. c #FCD162",
"o. c None",
"O. c None",
"+. c None",
"@. c None",
"#. c None",
"$. c None",
"%. c None",
"&. c None",
"*. c None",
"=. c None",
"-. c None",
";. c None",
":. c None",
">. c None",
",. c None",
"<. c None",
"1. c None",
"2. c None",
"3. c None",
"4. c None",
"5. c None",
"6. c None",
"7. c None",
"8. c None",
"9. c None",
"0. c None",
"q. c None",
"w. c None",
"e. c None",
/* pixels */
"e.e.e.e.e.e.e.e.e.e.e.e.e.e.e.e.e.e.e.e.e.e.e.e.e.e.e.e.e.e.e.e.e.e.e.e.e.e.e.e.e.e.e.e.e.e.e.e.",
"e.e.e.e.e.e.e.e.e.e.e.e.e.e.e.e.e.e.e.e.e.e.e.e.e.e.e.e.e.e.e.e.e.e.e.e.e.e.e.e.e.e.e.e.e.e.e.e.",
"e.e.e.e.e.e.e.e.e.e.e.e.e.e.e.e.e.e.e.e.e.e.e.e.e.e.e.e.e.e.e.e.e.e.e.e.e.e.e.e.e.e.e.e.e.e.e.e.",
"e.e.e.e.e.e.e.e.e.e.e.e.e.e.e.e.e.e.e.e.e.e.e.e.e.e.e.e.e.e.e.e.e.e.e.e.e.e.e.e.e.e.e.e.e.e.e.e.",
"e.e.e.e.e.e.e.e.e.e.e.e.e.e.e.e.e.e.e.e.e.e.e.e.e.e.e.e.e.e.e.e.e.e.e.e.e.e.e.e.e.e.e.e.e.e.e.e.",
"e.e.e.e.e.e.e.e.e.e.e.e.e.e.e.e.e.e.e.e.e.e.e.e.e.e.e.e.e.e.e.e.e.e.e.e.e.e.e.e.e.e.e.e.e.e.e.e.",
"e.e.e.e.e.e.e.e.e.e.e.e.e.e.e.e.e.e.e.e.e.e.e.e.e.e.e.e.e.e.e.e.e.e.e.e.e.e.e.e.e.e.e.e.e.e.e.e.",
"e.e.e.e.e.e.e.e.e.e.e.e.e.e.e.e.e.e.e.e.e.e.e.e.e.e.e.e.e.e.e.e.e.e.e.e.e.e.e.e.e.e.e.e.e.e.e.e.",
"e.e.e.e.e.e.e.e.e.e.e.e.e.e.e.e.e.e.e.e.e.e.e.e.e.e.e.e.e.e.e.e.e.e.e.e.e.e.e.e.e.e.e.e.e.e.e.e.",
"e.e.e.e.e.e.e.e.e.e.e.e.e.e.e.e.e.e.e.e.e.e.e.e.e.e.e.e.e.e.e.e.e.e.e.e.e.e.e.e.e.e.e.e.e.e.e.e.",
"e.e.e.e.e.e.e.e.e.e.e.e.e.e.e.e.e.e.e.e.e.e.e.e.e.e.e.e.e.e.e.e.e.e.e.e.e.e.e.e.e.e.e.e.e.e.e.e.",
"e.e.e.e.e.e.e.e.e.e.e.e.e.e.e.e.e.e.e.e.e.w.w.w.w.w.w.e.e.e.e.e.e.e.e.e.e.e.e.e.e.e.e.e.e.e.e.e.",
"e.e.e.e.e.e.e.e.e.e.e.e.e.e.e.e.e.e.e.e.w.9.8.8.8.7.9.w.e.w.e.e.e.e.e.e.e.e.e.e.e.e.e.e.e.e.e.e.",
"e.e.e.e.e.e.e.e.e.e.e.e.e.e.e.e.e.w.w.7.<.U $ $ $ $ 5 >.4.w.w.e.e.e.e.e.e.e.e.e.e.e.e.e.e.e.e.e.",
"e.e.e.e.e.e.e.e.e.e.e.e.e.e.e.e.w.0.:.@.o P ! ' ! ! Q O I ;.7.w.e.e.e.e.e.e.e.e.e.e.e.e.e.e.e.e.",
"e.e.e.e.e.e.e.e.e.e.e.e.e.e.e.w.w.*.1 9 { B S ( z z x a q & @.7.w.e.e.e.e.e.e.e.e.e.e.e.e.e.e.e.",
"e.e.e.e.e.e.e.e.e.e.e.e.e.w.w.9.&.L ] G k S H x z x x x z A 8 O.6.w.w.e.e.e.e.e.e.e.e.e.e.e.e.e.",
"e.e.e.e.e.e.e.e.e.e.e.e.e.w.0.*.L ] G g B F s y y y z x G X./ 8 +.0.w.w.e.e.e.e.e.e.e.e.e.e.e.e.",
"e.e.e.e.e.e.e.e.e.e.e.e.e.w.;.1  .S g G C t d d p d y v | ..S b < %.w.e.e.e.e.e.e.e.e.e.e.e.e.e.",
"e.e.e.e.e.e.e.e.e.e.e.e.e.9.#.9 G g S Z p g x x k z G [ D A x b q U 3.e.e.e.e.e.e.e.e.e.e.e.e.e.",
"e.e.e.e.e.e.e.e.e.e.e.e.w.3.+ / g B C p z x x x x G X...N h n n l % ;.e.e.e.e.e.e.e.e.e.e.e.e.e.",
"e.e.e.e.e.e.e.e.e.e.e.e.w.Y W B S H t g x x x x H X.X.S n s b n k 0 T w.e.e.e.e.e.e.e.e.e.e.e.e.",
"e.e.e.e.e.e.e.e.e.e.e.e.w.# ~ S H i p x x x x G X.X.F m V n s A H g > e.e.e.e.e.e.e.e.e.e.e.e.e.",
"e.e.e.e.e.e.e.e.e.e.e.e.0.# ] ( M y p x x x G X...S V V n n u H x k > e.e.e.e.e.e.e.e.e.e.e.e.e.",
"e.e.e.e.e.e.e.e.e.e.e.e.w.# ~ M x y p x x G X...G m M V M G y x x k > w.e.e.e.e.e.e.e.e.e.e.e.e.",
"e.e.e.e.e.e.e.e.e.e.e.e.w.# / M x y p x G ..X.G n m m n F ( r z G B > w.e.e.e.e.e.e.e.e.e.e.e.e.",
"e.e.e.e.e.e.e.e.e.e.e.e.0.5 Q m x z y G X.X.F V V M V G H s f V ( a 4 w.e.e.e.e.e.e.e.e.e.e.e.e.",
"e.e.e.e.e.e.e.e.e.e.e.e.w.1.@ ^ x z v [ X.G n V M M S ( n s B ) z * =.w.e.e.e.e.e.e.e.e.e.e.e.e.",
"e.e.e.e.e.e.e.e.e.e.e.e.w.6.I E V S _ C F V m B V G ) z s V ) M w 2 1.w.e.e.e.e.e.e.e.e.e.e.e.e.",
"e.e.e.e.e.e.e.e.e.e.e.e.w.w.-., { [ [ B s h n n S H s s B ( n z ; +.w.w.e.e.e.e.e.e.e.e.e.e.e.e.",
"e.e.e.e.e.e.e.e.e.e.e.e.e.w.5.O.P } S x l l u r u i g m ( n x e K 1.w.e.e.e.e.e.e.e.e.e.e.e.e.e.",
"e.e.e.e.e.e.e.e.e.e.e.e.e.e.w.6.Y P V z x x A ( x x G ` M x q 6 3.w.e.e.e.e.e.e.e.e.e.e.e.e.e.e.",
"e.e.e.e.e.e.e.e.e.e.e.e.e.e.e.w.6.R : q z S ( n x G ( n w 7 J 1.w.e.e.e.e.e.e.e.e.e.e.e.e.e.e.e.",
"e.e.e.e.e.e.e.e.e.e.e.e.e.e.e.e.w.7.$.K = c l f j N a - 3 o.1.w.w.w.e.e.e.e.e.e.e.e.e.e.e.e.e.e.",
"e.e.e.e.e.e.e.e.e.e.e.e.e.e.e.e.e.w.w.1.&.> .       X %.:.w.w.e.e.e.e.e.e.e.e.e.e.e.e.e.e.e.e.e.",
"e.e.e.e.e.e.e.e.e.e.e.e.e.e.e.e.e.e.e.e.w.2.<.<.,.,.1.w.e.e.w.e.e.e.e.e.e.e.e.e.e.e.e.e.e.e.e.e.",
"e.e.e.e.e.e.e.e.e.e.e.e.e.e.e.e.e.e.e.e.e.w.w.w.w.w.w.e.e.e.e.e.e.e.e.e.e.e.e.e.e.e.e.e.e.e.e.e.",
"e.e.e.e.e.e.e.e.e.e.e.e.e.e.e.e.e.e.e.e.e.e.e.e.w.w.e.e.e.e.e.e.e.e.e.e.e.e.e.e.e.e.e.e.e.e.e.e.",
"e.e.e.e.e.e.e.e.e.e.e.e.e.e.e.e.e.e.e.e.e.e.e.e.e.e.e.e.e.e.e.e.e.e.e.e.e.e.e.e.e.e.e.e.e.e.e.e.",
"e.e.e.e.e.e.e.e.e.e.e.e.e.e.e.e.e.e.e.e.e.e.e.e.e.e.e.e.e.e.e.e.e.e.e.e.e.e.e.e.e.e.e.e.e.e.e.e.",
"e.e.e.e.e.e.e.e.e.e.e.e.e.e.e.e.e.e.e.e.e.e.e.e.e.e.e.e.e.e.e.e.e.e.e.e.e.e.e.e.e.e.e.e.e.e.e.e.",
"e.e.e.e.e.e.e.e.e.e.e.e.e.e.e.e.e.e.e.e.e.e.e.e.e.e.e.e.e.e.e.e.e.e.e.e.e.e.e.e.e.e.e.e.e.e.e.e.",
"e.e.e.e.e.e.e.e.e.e.e.e.e.e.e.e.e.e.e.e.e.e.e.e.e.e.e.e.e.e.e.e.e.e.e.e.e.e.e.e.e.e.e.e.e.e.e.e.",
"e.e.e.e.e.e.e.e.e.e.e.e.e.e.e.e.e.e.e.e.e.e.e.e.e.e.e.e.e.e.e.e.e.e.e.e.e.e.e.e.e.e.e.e.e.e.e.e.",
"e.e.e.e.e.e.e.e.e.e.e.e.e.e.e.e.e.e.e.e.e.e.e.e.e.e.e.e.e.e.e.e.e.e.e.e.e.e.e.e.e.e.e.e.e.e.e.e.",
"e.e.e.e.e.e.e.e.e.e.e.e.e.e.e.e.e.e.e.e.e.e.e.e.e.e.e.e.e.e.e.e.e.e.e.e.e.e.e.e.e.e.e.e.e.e.e.e.",
"e.e.e.e.e.e.e.e.e.e.e.e.e.e.e.e.e.e.e.e.e.e.e.e.e.e.e.e.e.e.e.e.e.e.e.e.e.e.e.e.e.e.e.e.e.e.e.e.",
"e.e.e.e.e.e.e.e.e.e.e.e.e.e.e.e.e.e.e.e.e.e.e.e.e.e.e.e.e.e.e.e.e.e.e.e.e.e.e.e.e.e.e.e.e.e.e.e."
};
