/* XPM */
static char *xpm_[] = {
/* columns rows colors chars-per-pixel */
"48 48 130 2 ",
"   c #5B4117",
".  c #6E521A",
"X  c #775514",
"o  c #785717",
"O  c #7A5919",
"+  c #75633B",
"@  c #756443",
"#  c #7A6A47",
"$  c #7D6D4D",
"%  c #82500A",
"&  c #875609",
"*  c #875808",
"=  c #89620E",
"-  c #9E6F0D",
";  c #916211",
":  c #987219",
">  c #A0640C",
",  c #B27C10",
"<  c #886E2D",
"1  c #9B7222",
"2  c #97722A",
"3  c #997C2D",
"4  c #8D7432",
"5  c #84703B",
"6  c #947B37",
"7  c #90783B",
"8  c #A67B26",
"9  c #846F45",
"0  c #8C7647",
"q  c #8E7842",
"w  c #937A41",
"e  c #987D47",
"r  c #837253",
"t  c #917D51",
"y  c #BB8314",
"u  c #B4811F",
"i  c #97803A",
"p  c #9A833C",
"a  c #D79512",
"s  c #DC9D17",
"d  c #DC9D1A",
"f  c #F29607",
"g  c #F39B0B",
"h  c #F39F14",
"j  c #E3A214",
"k  c #EAA415",
"l  c #EEAC1A",
"z  c #F6A013",
"x  c #FBA610",
"c  c #F3AB17",
"v  c #FAAD15",
"b  c #F5AD1A",
"n  c #F8AE1E",
"m  c #FEB016",
"M  c #FCB51C",
"N  c #FDB91E",
"B  c #CB992B",
"V  c #C29E3E",
"C  c #DFB43D",
"Z  c #E0A527",
"A  c #F2A322",
"S  c #F3AC24",
"D  c #F0A528",
"F  c #F3AB2D",
"G  c #FAB524",
"H  c #FBB923",
"J  c #F4B22B",
"K  c #FABC2C",
"L  c #F2AD35",
"P  c #EFBC36",
"I  c #F5B233",
"U  c #FABC33",
"Y  c #F4B43A",
"T  c #FBC02C",
"R  c #FCC034",
"E  c #FBC33B",
"W  c #978149",
"Q  c #9F894B",
"!  c #95845C",
"~  c #AE9144",
"^  c #B59645",
"/  c #B59C5F",
"(  c #9A8860",
")  c #9C8B6E",
"_  c #9A8D74",
"`  c #968E7E",
"'  c #A19075",
"]  c #C3A245",
"[  c #DAB851",
"{  c #F4B642",
"}  c #F5B946",
"|  c #E2BE52",
" . c #FBC442",
".. c #F7C24E",
"X. c #F9C449",
"o. c #FCC948",
"O. c #E3C057",
"+. c #EAC157",
"@. c #F9C755",
"#. c #F9C850",
"$. c #FDCF5C",
"%. c #FCD15E",
"&. c #FCD263",
"*. c None",
"=. c None",
"-. c None",
";. c None",
":. c None",
">. c None",
",. c None",
"<. c None",
"1. c None",
"2. c None",
"3. c None",
"4. c None",
"5. c None",
"6. c None",
"7. c None",
"8. c None",
"9. c None",
"0. c None",
"q. c None",
"w. c None",
"e. c None",
"r. c None",
"t. c None",
"y. c None",
"u. c None",
"i. c None",
"p. c None",
/* pixels */
"p.p.p.p.p.p.p.p.p.p.p.p.p.p.p.p.p.p.p.p.p.p.p.p.p.p.p.p.p.p.p.p.p.p.p.p.p.p.p.p.p.p.p.p.p.p.p.p.",
"p.p.p.p.p.p.p.p.p.p.p.p.p.p.p.p.p.p.p.p.p.p.p.p.p.p.p.p.p.p.p.p.p.p.p.p.p.p.p.p.p.p.p.p.p.p.p.p.",
"p.p.p.p.p.p.p.p.p.p.p.p.p.p.p.p.p.p.p.p.p.p.p.p.p.p.p.p.p.p.p.p.p.p.p.p.p.p.p.p.p.p.p.p.p.p.p.p.",
"p.p.p.p.p.p.p.p.p.p.p.p.p.p.p.p.p.p.p.p.p.p.p.p.p.p.p.p.p.p.p.p.p.p.p.p.p.p.p.p.p.p.p.p.p.p.p.p.",
"p.p.p.p.p.p.p.p.p.p.p.p.p.p.p.p.p.p.p.p.p.p.p.p.p.p.p.p.p.p.p.p.p.p.p.p.p.p.p.p.p.p.p.p.p.p.p.p.",
"p.p.p.p.p.p.p.p.p.p.p.p.p.p.p.p.p.p.p.p.p.p.p.p.p.p.p.p.p.p.p.p.p.p.p.p.p.p.p.p.p.p.p.p.p.p.p.p.",
"p.p.p.p.p.p.p.p.p.p.p.p.p.p.p.p.p.p.p.p.p.p.p.p.p.p.p.p.p.p.p.p.p.p.p.p.p.p.p.p.p.p.p.p.p.p.p.p.",
"p.p.p.p.p.p.p.p.p.p.p.p.p.p.p.p.p.p.p.p.p.p.p.p.p.p.p.p.p.p.p.p.p.p.p.p.p.p.p.p.p.p.p.p.p.p.p.p.",
"p.p.p.p.p.p.p.p.p.p.p.p.p.p.p.p.p.p.p.p.p.p.p.p.p.p.p.p.p.p.p.p.p.p.p.p.p.p.p.p.p.p.p.p.p.p.p.p.",
"p.p.p.p.p.p.p.p.p.p.p.p.p.p.p.p.p.p.p.p.p.p.p.p.p.p.p.p.p.p.p.p.p.p.p.p.p.p.p.p.p.p.p.p.p.p.p.p.",
"p.p.p.p.p.p.p.p.p.p.p.p.p.p.p.p.p.p.p.p.p.p.p.p.p.p.p.p.p.p.p.p.p.p.p.p.p.p.p.p.p.p.p.p.p.p.p.p.",
"p.p.p.p.p.p.p.p.p.p.p.p.p.p.p.p.p.p.p.p.u.p.p.p.u.u.u.p.p.p.p.p.p.p.p.p.p.p.p.p.p.p.p.p.p.p.p.p.",
"p.p.p.p.p.p.p.p.p.p.p.p.p.p.p.p.p.p.p.p.w.0.0.q.q.0.0.u.p.p.p.p.p.p.p.p.p.p.p.p.p.p.p.p.p.p.p.p.",
"p.p.p.p.p.p.p.p.p.p.p.p.p.p.p.p.p.p.p.0.:.@ @ # # # $ 5.e.u.p.p.p.p.p.p.p.p.p.p.p.p.p.p.p.p.p.p.",
"p.p.p.p.p.p.p.p.p.p.p.p.p.p.p.p.p.p.0.>.7 < V O.O.O.| 0 4.i.p.p.p.p.p.p.p.p.p.p.p.p.p.p.p.p.p.p.",
"p.p.p.p.p.p.p.p.p.p.p.p.p.p.p.p.p.u.:.7 i V T H  .R M s w 5.u.u.p.p.p.p.p.p.p.p.p.p.p.p.p.p.p.p.",
"p.p.p.p.p.p.p.p.p.p.p.p.p.p.p.p.q.:.( 6 V K H  .R N m H s e 4.u.p.p.p.p.p.p.p.p.p.p.p.p.p.p.p.p.",
"p.p.p.p.p.p.p.p.p.p.p.p.p.p.p.w.;.Q q ] T H  .A g g m N U [ t 5.u.p.p.p.p.p.p.p.p.p.p.p.p.p.p.p.",
"p.p.p.p.p.p.p.p.p.p.p.p.p.p.u.2.! 0 ] K N E b x x x g G &.&.Z 9 8.u.p.p.p.p.p.p.p.p.p.p.p.p.p.p.",
"p.p.p.p.p.p.p.p.p.p.p.p.p.p.0.-.W 7 C K } D x N N N G F X.R c 2 1.p.p.p.p.p.p.p.p.p.p.p.p.p.p.p.",
"p.p.p.p.p.p.p.p.p.p.p.p.p.p.3.9 p ~ R  .J g M N N R %.@.h H N a $ u.p.p.p.p.p.p.p.p.p.p.p.p.p.p.",
"p.p.p.p.p.p.p.p.p.p.p.p.p.p._ Q 4 C o.K g v N N R &.&. .I v N l 8 :.p.p.p.p.p.p.p.p.p.p.p.p.p.p.",
"p.p.p.p.p.p.p.p.p.p.p.p.p.p.@ / 4 %.U g v N N R &.&.R H E F v M y ` u.p.p.p.p.p.p.p.p.p.p.p.p.p.",
"p.p.p.p.p.p.p.p.p.p.p.p.p.p.+ ^ 4 E M f m N T %.&.E N N R L c H y ` u.p.p.p.p.p.p.p.p.p.p.p.p.p.",
"p.p.p.p.p.p.p.p.p.p.p.p.p.p.+ ^ 4 E m f v R %.&.E N N N R L n  .y ` p.p.p.p.p.p.p.p.p.p.p.p.p.p.",
"p.p.p.p.p.p.p.p.p.p.p.p.p.p.+ ^ 4 E N f G $.&.E N N N N U Y Y U y ` u.p.p.p.p.p.p.p.p.p.p.p.p.p.",
"p.p.p.p.p.p.p.p.p.p.p.p.p.p.r ^ 4 P N n z  .R N m N N K Y Y  .J u *.u.p.p.p.p.p.p.p.p.p.p.p.p.p.",
"p.p.p.p.p.p.p.p.p.p.p.p.p.e.2.5 p , U &.Y z N N N N N ..A X.U d 9 9.p.p.p.p.p.p.p.p.p.p.p.p.p.p.",
"p.p.p.p.p.p.p.p.p.p.p.p.p.u.7.) 3 - +.&.U g m N N M U } { U b u =.w.p.p.p.p.p.p.p.p.p.p.p.p.p.p.",
"p.p.p.p.p.p.p.p.p.p.p.p.p.p.u.<.: = B R N v g G X.X.Y J E H k + 8.u.p.p.p.p.p.p.p.p.p.p.p.p.p.p.",
"p.p.p.p.p.p.p.p.p.p.p.p.p.p.p.8._ - = j N N c g D D S o.H l 1 <.q.p.p.p.p.p.p.p.p.p.p.p.p.p.p.p.",
"p.p.p.p.p.p.p.p.p.p.p.p.p.p.p.u.9.) > & j N v n G K #.U l : ,.0.p.p.p.p.p.p.p.p.p.p.p.p.p.p.p.p.",
"p.p.p.p.p.p.p.p.p.p.p.p.p.p.p.p.e.9._ & * s n K K X.R l 8 >.0.p.p.p.p.p.p.p.p.p.p.p.p.p.p.p.p.p.",
"p.p.p.p.p.p.p.p.p.p.p.p.p.p.p.p.p.i.8.' % ; d G J J k 3 :.u.p.p.p.p.p.p.p.p.p.p.p.p.p.p.p.p.p.p.",
"p.p.p.p.p.p.p.p.p.p.p.p.p.p.p.p.p.p.i.8._   . O X X o ,.0.p.p.p.p.p.p.p.p.p.p.p.p.p.p.p.p.p.p.p.",
"p.p.p.p.p.p.p.p.p.p.p.p.p.p.p.p.p.p.p.p.9.6.6.6.5.5.7.w.p.p.p.p.p.p.p.p.p.p.p.p.p.p.p.p.p.p.p.p.",
"p.p.p.p.p.p.p.p.p.p.p.p.p.p.p.p.p.p.p.p.p.p.e.u.p.u.p.p.p.p.p.p.p.p.p.p.p.p.p.p.p.p.p.p.p.p.p.p.",
"p.p.p.p.p.p.p.p.p.p.p.p.p.p.p.p.p.p.p.p.p.p.p.p.p.p.p.p.p.p.p.p.p.p.p.p.p.p.p.p.p.p.p.p.p.p.p.p.",
"p.p.p.p.p.p.p.p.p.p.p.p.p.p.p.p.p.p.p.p.p.p.p.p.p.p.p.p.p.p.p.p.p.p.p.p.p.p.p.p.p.p.p.p.p.p.p.p.",
"p.p.p.p.p.p.p.p.p.p.p.p.p.p.p.p.p.p.p.p.p.p.p.p.p.p.p.p.p.p.p.p.p.p.p.p.p.p.p.p.p.p.p.p.p.p.p.p.",
"p.p.p.p.p.p.p.p.p.p.p.p.p.p.p.p.p.p.p.p.p.p.p.p.p.p.p.p.p.p.p.p.p.p.p.p.p.p.p.p.p.p.p.p.p.p.p.p.",
"p.p.p.p.p.p.p.p.p.p.p.p.p.p.p.p.p.p.p.p.p.p.p.p.p.p.p.p.p.p.p.p.p.p.p.p.p.p.p.p.p.p.p.p.p.p.p.p.",
"p.p.p.p.p.p.p.p.p.p.p.p.p.p.p.p.p.p.p.p.p.p.p.p.p.p.p.p.p.p.p.p.p.p.p.p.p.p.p.p.p.p.p.p.p.p.p.p.",
"p.p.p.p.p.p.p.p.p.p.p.p.p.p.p.p.p.p.p.p.p.p.p.p.p.p.p.p.p.p.p.p.p.p.p.p.p.p.p.p.p.p.p.p.p.p.p.p.",
"p.p.p.p.p.p.p.p.p.p.p.p.p.p.p.p.p.p.p.p.p.p.p.p.p.p.p.p.p.p.p.p.p.p.p.p.p.p.p.p.p.p.p.p.p.p.p.p.",
"p.p.p.p.p.p.p.p.p.p.p.p.p.p.p.p.p.p.p.p.p.p.p.p.p.p.p.p.p.p.p.p.p.p.p.p.p.p.p.p.p.p.p.p.p.p.p.p.",
"p.p.p.p.p.p.p.p.p.p.p.p.p.p.p.p.p.p.p.p.p.p.p.p.p.p.p.p.p.p.p.p.p.p.p.p.p.p.p.p.p.p.p.p.p.p.p.p.",
"p.p.p.p.p.p.p.p.p.p.p.p.p.p.p.p.p.p.p.p.p.p.p.p.p.p.p.p.p.p.p.p.p.p.p.p.p.p.p.p.p.p.p.p.p.p.p.p."
};
