/* XPM */
static char *xpm_[] = {
/* columns rows colors chars-per-pixel */
"48 48 143 2 ",
"   c #593E11",
".  c #714B07",
"X  c #76530F",
"o  c #7A580A",
"O  c #644810",
"+  c #775410",
"@  c #785514",
"#  c #7D5C13",
"$  c #7C642A",
"%  c #7D6632",
"&  c #7D693E",
"*  c #7B6A46",
"=  c #756648",
"-  c #7D6C4A",
";  c #895907",
":  c #81550C",
">  c #8E5910",
",  c #956C0E",
"<  c #8C641A",
"1  c #946C10",
"2  c #996814",
"3  c #B67207",
"4  c #A57814",
"5  c #AD7D1F",
"6  c #866825",
"7  c #806228",
"8  c #83692C",
"9  c #95772F",
"0  c #9E772A",
"q  c #8D7334",
"w  c #8C743D",
"e  c #927733",
"r  c #957C35",
"t  c #A47B24",
"y  c #806E44",
"u  c #8E7647",
"i  c #8F7944",
"p  c #8B784F",
"a  c #957E47",
"s  c #8E7B51",
"d  c #BF8412",
"f  c #B0821A",
"g  c #9D8138",
"h  c #AF8E37",
"j  c #DE8404",
"k  c #D4910E",
"l  c #CF8E11",
"z  c #D59612",
"x  c #D89E15",
"c  c #DE9F1D",
"v  c #F29505",
"b  c #F29708",
"n  c #F49B0B",
"m  c #F29D15",
"M  c #DDA61D",
"N  c #F3A00E",
"B  c #EEAD1A",
"V  c #FBA611",
"C  c #F5AA15",
"Z  c #F9AD16",
"A  c #F3A21D",
"S  c #F4AB1B",
"D  c #FBAE1A",
"F  c #FDB017",
"G  c #F3B019",
"H  c #FCB41B",
"J  c #FDB91E",
"K  c #C89222",
"L  c #C9A33C",
"P  c #F3A727",
"I  c #F6AC27",
"U  c #F3B323",
"Y  c #FCB722",
"T  c #F7BC20",
"R  c #FCBA24",
"E  c #F5B32A",
"W  c #F9B629",
"Q  c #F7B92C",
"!  c #FCBE2C",
"~  c #F6B531",
"^  c #F7BA35",
"/  c #F6B63A",
"(  c #FCC135",
")  c #FAC23D",
"_  c #97824C",
"`  c #9A845B",
"'  c #B69945",
"]  c #BF9E45",
"[  c #BB9E4E",
"{  c #AA9257",
"}  c #B5A25F",
"|  c #918266",
" . c #9B8A62",
".. c #A59474",
"X. c #A2947D",
"o. c #D1AA45",
"O. c #CFB250",
"+. c #DCB959",
"@. c #F8BC43",
"#. c #F9BF48",
"$. c #F3C041",
"%. c #FCC443",
"&. c #FCC947",
"*. c #F9C34C",
"=. c #FBC94A",
"-. c #E3C055",
";. c #E7C35A",
":. c #F8CF57",
">. c #FCCF5A",
",. c #F6CF64",
"<. c #FCD160",
"1. c #F7D76C",
"2. c None",
"3. c None",
"4. c None",
"5. c None",
"6. c None",
"7. c None",
"8. c None",
"9. c None",
"0. c None",
"q. c None",
"w. c None",
"e. c None",
"r. c None",
"t. c None",
"y. c None",
"u. c None",
"i. c None",
"p. c None",
"a. c None",
"s. c None",
"d. c None",
"f. c None",
"g. c None",
"h. c None",
"j. c None",
"k. c None",
"l. c None",
"z. c None",
"x. c None",
"c. c None",
"v. c None",
/* pixels */
"v.v.v.v.v.v.v.v.v.v.v.v.v.v.v.v.v.v.v.v.v.v.v.v.v.v.v.v.v.v.v.v.v.v.v.v.v.v.v.v.v.v.v.v.v.v.v.v.",
"v.v.v.v.v.v.v.v.v.v.v.v.v.v.v.v.v.v.v.v.v.v.v.v.v.v.v.v.v.v.v.v.v.v.v.v.v.v.v.v.v.v.v.v.v.v.v.v.",
"v.v.v.v.v.v.v.v.v.v.v.v.v.v.v.v.v.v.v.v.v.v.v.v.v.v.v.v.v.v.v.v.v.v.v.v.v.v.v.v.v.v.v.v.v.v.v.v.",
"v.v.v.v.v.v.v.v.v.v.v.v.v.v.v.v.v.v.v.v.v.v.v.v.v.v.v.v.v.v.v.v.v.v.v.v.v.v.v.v.v.v.v.v.v.v.v.v.",
"v.v.v.v.v.v.v.v.v.v.v.v.v.v.v.v.v.v.v.v.v.v.v.v.v.v.v.v.v.v.v.v.v.v.v.v.v.v.v.v.v.v.v.v.v.v.v.v.",
"v.v.v.v.v.v.v.v.v.v.v.v.v.v.v.v.v.v.v.v.v.v.v.v.v.v.v.v.v.v.v.v.v.v.v.v.v.v.v.v.v.v.v.v.v.v.v.v.",
"v.v.v.v.v.v.v.v.v.v.v.v.v.v.v.v.v.v.v.v.v.v.v.v.v.v.v.v.v.v.v.v.v.v.v.v.v.v.v.v.v.v.v.v.v.v.v.v.",
"v.v.v.v.v.v.v.v.v.v.v.v.v.v.v.v.v.v.v.v.v.v.v.v.v.v.v.v.v.v.v.v.v.v.v.v.v.v.v.v.v.v.v.v.v.v.v.v.",
"v.v.v.v.v.v.v.v.v.v.v.v.v.v.v.v.v.v.v.v.v.v.v.v.v.v.v.v.v.v.v.v.v.v.v.v.v.v.v.v.v.v.v.v.v.v.v.v.",
"v.v.v.v.v.v.v.v.v.v.v.v.v.v.v.v.v.v.v.v.v.v.v.v.v.v.v.v.v.v.v.v.v.v.v.v.v.v.v.v.v.v.v.v.v.v.v.v.",
"v.v.v.v.v.v.v.v.v.v.v.v.v.v.v.v.v.v.v.v.v.v.v.v.v.v.v.v.v.v.v.v.v.v.v.v.v.v.v.v.v.v.v.v.v.v.v.v.",
"v.v.v.v.v.v.v.v.v.v.v.v.v.v.v.v.v.v.v.v.v.v.v.v.c.c.v.v.v.v.v.v.v.v.v.v.v.v.v.v.v.v.v.v.v.v.v.v.",
"v.v.v.v.v.v.v.v.v.v.v.v.v.v.v.v.v.v.v.v.c.l.l.l.l.l.l.c.v.v.v.v.v.v.v.v.v.v.v.v.v.v.v.v.v.v.v.v.",
"v.v.v.v.v.v.v.v.v.v.v.v.v.v.v.v.v.v.v.z.q.= = * * - - i.z.v.v.v.v.v.v.v.v.v.v.v.v.v.v.v.v.v.v.v.",
"v.v.v.v.v.v.v.v.v.v.v.v.v.v.v.v.v.v.l.t.p i ' -.-.;.+.e y.c.v.v.v.v.v.v.v.v.v.v.v.v.v.v.v.v.v.v.",
"v.v.v.v.v.v.v.v.v.v.v.v.v.v.v.v.v.v.q._ } r :.! ) ) H x * c.v.v.v.v.v.v.v.v.v.v.v.v.v.v.v.v.v.v.",
"v.v.v.v.v.v.v.v.v.v.v.v.v.v.v.v.z.0._ -.r L ! ) ) J H B t 9.z.c.v.v.v.v.v.v.v.v.v.v.v.v.v.v.v.v.",
"v.v.v.v.v.v.v.v.v.v.v.v.v.v.v.c.t.` w.q o.! ) P b n G J B 0 0.c.v.v.v.v.v.v.v.v.v.v.v.v.v.v.v.v.",
"v.v.v.v.v.v.v.v.v.v.v.v.v.v.v.l.2.{ w.8 *.%.P V V V n F R f X.l.v.v.v.v.v.v.v.v.v.v.v.v.v.v.v.v.",
"v.v.v.v.v.v.v.v.v.v.v.v.v.v.c.a.w 1.8 O.) I V J J J F n E $.< i.c.v.c.v.v.v.v.v.v.v.v.v.v.v.v.v.",
"v.v.v.v.v.v.v.v.v.v.v.v.v.c.k.4.[ } g ;.~ n H J J H Y V m ! d ..h.c.c.v.v.v.v.v.v.v.v.v.v.v.v.v.",
"v.v.v.v.v.v.v.v.v.v.v.v.v.c.f.y 1.9 ] ( n Z J J J J J %./ C D 7 d.v.c.v.v.v.v.v.v.v.v.v.v.v.v.v.",
"v.v.v.v.v.v.v.v.v.v.v.v.v.c.f.y e.a ] R v F J J J Y =.<.*.N Z $ a.v.c.v.v.v.v.v.v.v.v.v.v.v.v.v.",
"v.v.v.v.v.v.v.v.v.v.v.v.v.c.f.* r._ ] R v D J J Y &.>.( *.N Z 7 f.x.c.v.v.v.v.v.v.v.v.v.v.v.v.v.",
"v.v.v.v.v.v.v.v.v.v.v.v.v.c.f.& ,.9 ] R v F J Y =.>.! J #.N D $ f.v.c.v.v.v.v.v.v.v.v.v.v.v.v.v.",
"v.v.v.v.v.v.v.v.v.v.v.v.v.c.f.% J , ] R v F R =.>.( J J #.n Z 7 a.c.c.v.v.v.v.v.v.v.v.v.v.v.v.v.",
"v.v.v.v.v.v.v.v.v.v.v.v.v.c.f.% T 1 ] ! b F &.>.( J J ( @.N Z $ d.c.x.v.v.v.v.v.v.v.v.v.v.v.v.v.",
"v.v.v.v.v.v.v.v.v.v.v.v.v.c.f.s M 4 h U V n ) ! H H H &.A R c u f.v.c.v.v.v.v.v.v.v.v.v.v.v.v.v.",
"v.v.v.v.v.v.v.v.v.v.v.v.v.v.v.p.# ( o z ^ A Z J J J ( / S &.6 u.v.c.x.v.v.v.v.v.v.v.v.v.v.v.v.v.",
"v.v.v.v.v.v.v.v.v.v.v.v.v.v.v.g. .d 3 , :.W N D %.&.^ S %.K ` f.v.v.v.v.v.v.v.v.v.v.v.v.v.v.v.v.",
"v.v.v.v.v.v.v.v.v.v.v.v.v.v.v.c.8.2 j . B Y D n A m S *.Q 4 5.v.v.v.v.v.v.v.v.v.v.v.v.v.v.v.v.v.",
"v.v.v.v.v.v.v.v.v.v.v.v.v.v.v.c.l.2.3 3 : S D H J R *.! l | k.v.v.v.v.v.v.v.v.v.v.v.v.v.v.v.v.v.",
"v.v.v.v.v.v.v.v.v.v.v.v.v.v.v.v.c.l.X.> o k H J R %.! S 5 7.x.v.v.v.v.v.v.v.v.v.v.v.v.v.v.v.v.v.",
"v.v.v.v.v.v.v.v.v.v.v.v.v.v.v.v.v.c.j.3.: ; k C U E G t 6.x.v.v.v.v.v.v.v.v.v.v.v.v.v.v.v.v.v.v.",
"v.v.v.v.v.v.v.v.v.v.v.v.v.v.v.v.v.v.c.l.X.  O + + X @ 7.l.c.v.v.v.v.v.v.v.v.v.v.v.v.v.v.v.v.v.v.",
"v.v.v.v.v.v.v.v.v.v.v.v.v.v.v.v.v.v.v.v.l.d.s.s.f.a.f.l.v.v.v.v.v.v.v.v.v.v.v.v.v.v.v.v.v.v.v.v.",
"v.v.v.v.v.v.v.v.v.v.v.v.v.v.v.v.v.v.v.v.v.c.v.c.c.c.c.v.v.v.v.v.v.v.v.v.v.v.v.v.v.v.v.v.v.v.v.v.",
"v.v.v.v.v.v.v.v.v.v.v.v.v.v.v.v.v.v.v.v.v.v.v.v.v.v.v.v.v.v.v.v.v.v.v.v.v.v.v.v.v.v.v.v.v.v.v.v.",
"v.v.v.v.v.v.v.v.v.v.v.v.v.v.v.v.v.v.v.v.v.v.v.v.v.v.v.v.v.v.v.v.v.v.v.v.v.v.v.v.v.v.v.v.v.v.v.v.",
"v.v.v.v.v.v.v.v.v.v.v.v.v.v.v.v.v.v.v.v.v.v.v.v.v.v.v.v.v.v.v.v.v.v.v.v.v.v.v.v.v.v.v.v.v.v.v.v.",
"v.v.v.v.v.v.v.v.v.v.v.v.v.v.v.v.v.v.v.v.v.v.v.v.v.v.v.v.v.v.v.v.v.v.v.v.v.v.v.v.v.v.v.v.v.v.v.v.",
"v.v.v.v.v.v.v.v.v.v.v.v.v.v.v.v.v.v.v.v.v.v.v.v.v.v.v.v.v.v.v.v.v.v.v.v.v.v.v.v.v.v.v.v.v.v.v.v.",
"v.v.v.v.v.v.v.v.v.v.v.v.v.v.v.v.v.v.v.v.v.v.v.v.v.v.v.v.v.v.v.v.v.v.v.v.v.v.v.v.v.v.v.v.v.v.v.v.",
"v.v.v.v.v.v.v.v.v.v.v.v.v.v.v.v.v.v.v.v.v.v.v.v.v.v.v.v.v.v.v.v.v.v.v.v.v.v.v.v.v.v.v.v.v.v.v.v.",
"v.v.v.v.v.v.v.v.v.v.v.v.v.v.v.v.v.v.v.v.v.v.v.v.v.v.v.v.v.v.v.v.v.v.v.v.v.v.v.v.v.v.v.v.v.v.v.v.",
"v.v.v.v.v.v.v.v.v.v.v.v.v.v.v.v.v.v.v.v.v.v.v.v.v.v.v.v.v.v.v.v.v.v.v.v.v.v.v.v.v.v.v.v.v.v.v.v.",
"v.v.v.v.v.v.v.v.v.v.v.v.v.v.v.v.v.v.v.v.v.v.v.v.v.v.v.v.v.v.v.v.v.v.v.v.v.v.v.v.v.v.v.v.v.v.v.v.",
"v.v.v.v.v.v.v.v.v.v.v.v.v.v.v.v.v.v.v.v.v.v.v.v.v.v.v.v.v.v.v.v.v.v.v.v.v.v.v.v.v.v.v.v.v.v.v.v."
};
