/* XPM */
static char *xpm_[] = {
/* columns rows colors chars-per-pixel */
"48 48 139 2 ",
"   c #51390F",
".  c #67420E",
"X  c #7E4F0B",
"o  c #6B4A13",
"O  c #765311",
"+  c #745C2C",
"@  c #796334",
"#  c #74613D",
"$  c #6F6042",
"%  c #7A6A4A",
"&  c #7F735A",
"*  c #844F01",
"=  c #915909",
"-  c #825A12",
";  c #94660F",
":  c #936612",
">  c #95661C",
",  c #AD6506",
"<  c #A16408",
"1  c #B1790F",
"2  c #AD7D1E",
"3  c #846B2E",
"4  c #8E742F",
"5  c #967025",
"6  c #886A38",
"7  c #8F7431",
"8  c #917733",
"9  c #927834",
"0  c #99793E",
"q  c #A57920",
"w  c #CC7502",
"e  c #D37F04",
"r  c #886F4B",
"t  c #897544",
"y  c #8C7546",
"u  c #957F4A",
"i  c #86795E",
"p  c #967B54",
"a  c #877A61",
"s  c #9E833B",
"d  c #AD872B",
"f  c #A38230",
"g  c #A38739",
"h  c #A5883B",
"j  c #DE880E",
"k  c #C78C16",
"l  c #C6941D",
"z  c #D89513",
"x  c #D0911A",
"c  c #D19D19",
"v  c #EE960A",
"b  c #F19607",
"n  c #F29A0C",
"m  c #E19E11",
"M  c #EF9B13",
"N  c #EE9C1B",
"B  c #F19C12",
"V  c #F39B18",
"C  c #F6A30F",
"Z  c #E1A113",
"A  c #F7A311",
"S  c #F9A715",
"D  c #F3AD16",
"F  c #FCAB13",
"G  c #F6AC1C",
"H  c #F9AB1A",
"J  c #FBB61D",
"K  c #FCB81D",
"L  c #C49B38",
"P  c #D3A122",
"I  c #D1A93E",
"U  c #F2A527",
"Y  c #F7AC23",
"T  c #EFB425",
"R  c #F6B323",
"E  c #F9B621",
"W  c #FBB923",
"Q  c #F4B52D",
"!  c #F7BC2C",
"~  c #FBBD2D",
"^  c #EFBC39",
"/  c #F6B336",
"(  c #F5B43A",
")  c #F7B93D",
"_  c #FABF3C",
"`  c #FBC135",
"'  c #F6C03D",
"]  c #FAC33D",
"[  c #FCC83D",
"{  c #AA9043",
"}  c #BD9C41",
"|  c #B69A48",
" . c #AF975B",
".. c #9B8E6F",
"X. c #948977",
"o. c #B4A16B",
"O. c #C6A64D",
"+. c #D2AF4C",
"@. c #DCB245",
"#. c #DBB949",
"$. c #C4A751",
"%. c #D2B355",
"&. c #D2B55A",
"*. c #F8BC41",
"=. c #E2BE52",
"-. c #C4AD73",
";. c #D2BC7C",
":. c #FAC443",
">. c #FAC64D",
",. c #FCCB4C",
"<. c #F7C85A",
"1. c #FCD053",
"2. c #FBD567",
"3. c None",
"4. c None",
"5. c None",
"6. c None",
"7. c None",
"8. c None",
"9. c None",
"0. c None",
"q. c None",
"w. c None",
"e. c None",
"r. c None",
"t. c None",
"y. c None",
"u. c None",
"i. c None",
"p. c None",
"a. c None",
"s. c None",
"d. c None",
"f. c None",
"g. c None",
"h. c None",
"j. c None",
"k. c None",
"l. c None",
/* pixels */
"l.l.l.l.l.l.l.l.l.l.l.l.l.l.l.l.l.l.l.l.l.l.l.l.l.l.l.l.l.l.l.l.l.l.l.l.l.l.l.l.l.l.l.l.l.l.l.l.",
"l.l.l.l.l.l.l.l.l.l.l.l.l.l.l.l.l.l.l.l.l.l.l.l.l.l.l.l.l.l.l.l.l.l.l.l.l.l.l.l.l.l.l.l.l.l.l.l.",
"l.l.l.l.l.l.l.l.l.l.l.l.l.l.l.l.l.l.l.l.l.l.l.l.l.l.l.l.l.l.l.l.l.l.l.l.l.l.l.l.l.l.l.l.l.l.l.l.",
"l.l.l.l.l.l.l.l.l.l.l.l.l.l.l.l.l.l.l.l.l.l.l.l.l.l.l.l.l.l.l.l.l.l.l.l.l.l.l.l.l.l.l.l.l.l.l.l.",
"l.l.l.l.l.l.l.l.l.l.l.l.l.l.l.l.l.l.l.l.l.l.l.l.l.l.l.l.l.l.l.l.l.l.l.l.l.l.l.l.l.l.l.l.l.l.l.l.",
"l.l.l.l.l.l.l.l.l.l.l.l.l.l.l.l.l.l.l.l.l.l.l.l.l.l.l.l.l.l.l.l.l.l.l.l.l.l.l.l.l.l.l.l.l.l.l.l.",
"l.l.l.l.l.l.l.l.l.l.l.l.l.l.l.l.l.l.l.l.l.l.l.l.l.l.l.l.l.l.l.l.l.l.l.l.l.l.l.l.l.l.l.l.l.l.l.l.",
"l.l.l.l.l.l.l.l.l.l.l.l.l.l.l.l.l.l.l.l.l.l.l.l.l.l.l.l.l.l.l.l.l.l.l.l.l.l.l.l.l.l.l.l.l.l.l.l.",
"l.l.l.l.l.l.l.l.l.l.l.l.l.l.l.l.l.l.l.l.l.l.l.l.l.l.l.l.l.l.l.l.l.l.l.l.l.l.l.l.l.l.l.l.l.l.l.l.",
"l.l.l.l.l.l.l.l.l.l.l.l.l.l.l.l.l.l.l.l.l.l.l.l.l.l.l.l.l.l.l.l.l.l.l.l.l.l.l.l.l.l.l.l.l.l.l.l.",
"l.l.l.l.l.l.l.l.l.l.l.l.l.l.l.l.l.l.l.l.l.l.l.l.l.l.l.l.l.l.l.l.l.l.l.l.l.l.l.l.l.l.l.l.l.l.l.l.",
"l.l.l.l.l.l.l.l.l.l.l.l.l.l.l.l.l.l.l.l.l.k.l.j.k.k.l.l.l.l.l.l.l.l.l.l.l.l.l.l.l.l.l.l.l.l.l.l.",
"l.l.l.l.l.l.l.l.l.l.l.l.l.l.l.l.l.l.l.l.j.h.g.h.g.g.k.k.l.l.l.l.l.l.l.l.l.l.l.l.l.l.l.l.l.l.l.l.",
"l.l.l.l.l.l.l.l.l.l.l.l.l.l.l.l.l.l.l.k.s.3.% $ % % t.h.k.l.l.l.l.l.l.l.l.l.l.l.l.l.l.l.l.l.l.l.",
"l.l.l.l.l.l.l.l.l.l.l.l.l.l.l.l.l.l.l.f.5.o.o.3 >.#.u r.l.l.l.l.k.l.l.l.l.l.l.l.l.l.l.l.l.l.l.l.",
"l.l.l.l.l.l.l.l.l.l.l.l.l.l.l.l.l.l.k.e.s w.+ %.J ` #.# l.l.l.l.k.l.l.l.l.l.l.l.l.l.l.l.l.l.l.l.",
"l.l.l.l.l.l.l.l.l.l.l.l.l.l.l.l.l.k.d...$.| g ^ ` :.T q 7.h.k.k.l.l.l.l.l.l.l.l.l.l.l.l.l.l.l.l.",
"l.l.l.l.l.l.l.l.l.l.l.l.l.l.l.l.l.k.i.% q.@ +.` ) G J z & g.k.l.k.l.l.l.l.l.l.l.l.l.l.l.l.l.l.l.",
"l.l.l.l.l.l.l.l.l.l.l.l.l.l.l.l.k.d.% 0. .h _ *.A n G R 2 4.k.l.k.l.l.l.l.l.l.l.l.l.l.l.l.l.l.l.",
"l.l.l.l.l.l.l.l.l.l.l.l.l.l.l.l.k.y.t <.s l >.V F H M ! k ..s.l.l.l.l.l.l.l.l.l.l.l.l.l.l.l.l.l.",
"l.l.l.l.l.l.l.l.l.l.l.l.l.l.l.l.k.& %.O.9 1./ C J J / ( W : 9.l.k.l.l.l.l.l.l.l.l.l.l.l.l.l.l.l.",
"l.l.l.l.l.l.l.l.l.l.l.l.l.l.l.l.k.a &.O.4 1.v F J _ <.N W : 9.k.k.l.l.l.l.l.l.l.l.l.l.l.l.l.l.l.",
"l.l.l.l.l.l.l.l.l.l.l.l.l.l.l.l.k.a &.$.4 [ b F *.:.>.M J ; 9.k.l.l.l.l.l.l.l.l.l.l.l.l.l.l.l.l.",
"l.l.l.l.l.l.l.l.l.l.l.l.l.l.l.l.h.a ;.o.4 [ v H ,.' >.B K ; 9.l.k.l.l.l.l.l.l.l.l.l.l.l.l.l.l.l.",
"l.l.l.l.l.l.l.l.l.l.l.l.l.l.l.l.j.a ;.-.7 :.M Y ] E >.V K ; 9.l.k.l.l.l.l.l.l.l.l.l.l.l.l.l.l.l.",
"l.l.l.l.l.l.l.l.l.l.l.l.l.l.l.l.j.i I L 4 2.N G E J >.B K ; 9.k.l.l.l.l.l.l.l.l.l.l.l.l.l.l.l.l.",
"l.l.l.l.l.l.l.l.l.l.l.l.l.l.l.l.k.i c l 8 2.G S W K >.V W ; 9.l.k.l.l.l.l.l.l.l.l.l.l.l.l.l.l.l.",
"l.l.l.l.l.l.l.l.l.l.l.l.l.l.l.l.k.i P l 9 >.M C K W :.U [ ; 9.k.k.l.l.l.l.l.l.l.l.l.l.l.l.l.l.l.",
"l.l.l.l.l.l.l.l.l.l.l.l.l.l.l.l.k.6.d x 5 @.E b F ,.U _ m 0 u.l.l.l.l.l.l.l.l.l.l.l.l.l.l.l.l.l.",
"l.l.l.l.l.l.l.l.l.l.l.l.l.l.l.l.k.s.# j < { ~ A Y ( / J 1 3.k.l.k.l.l.l.l.l.l.l.l.l.l.l.l.l.l.l.",
"l.l.l.l.l.l.l.l.l.l.l.l.l.l.l.l.l.j.e.> e - @.W G ( _ z y p.k.l.k.l.l.l.l.l.l.l.l.l.l.l.l.l.l.l.",
"l.l.l.l.l.l.l.l.l.l.l.l.l.l.l.l.l.k.a.6 e * } ~ ] ] J k X.g.l.l.k.l.l.l.l.l.l.l.l.l.l.l.l.l.l.l.",
"l.l.l.l.l.l.l.l.l.l.l.l.l.l.l.l.l.l.k.8.X w o =.:.` Z + g.k.l.l.k.l.l.l.l.l.l.l.l.l.l.l.l.l.l.l.",
"l.l.l.l.l.l.l.l.l.l.l.l.l.l.l.l.l.l.l.a.p , = f Q D d 4.k.l.l.l.k.l.l.l.l.l.l.l.l.l.l.l.l.l.l.l.",
"l.l.l.l.l.l.l.l.l.l.l.l.l.l.l.l.l.l.l.k.i.r .   O O 4.g.k.l.l.l.l.l.l.l.l.l.l.l.l.l.l.l.l.l.l.l.",
"l.l.l.l.l.l.l.l.l.l.l.l.l.l.l.l.l.l.l.l.k.s.i.p.p.p.g.k.l.l.l.l.l.l.l.l.l.l.l.l.l.l.l.l.l.l.l.l.",
"l.l.l.l.l.l.l.l.l.l.l.l.l.l.l.l.l.l.l.l.l.k.k.k.k.k.l.l.l.l.l.l.l.l.l.l.l.l.l.l.l.l.l.l.l.l.l.l.",
"l.l.l.l.l.l.l.l.l.l.l.l.l.l.l.l.l.l.l.l.l.l.l.l.l.l.l.l.l.l.l.l.l.l.l.l.l.l.l.l.l.l.l.l.l.l.l.l.",
"l.l.l.l.l.l.l.l.l.l.l.l.l.l.l.l.l.l.l.l.l.l.l.l.l.l.l.l.l.l.l.l.l.l.l.l.l.l.l.l.l.l.l.l.l.l.l.l.",
"l.l.l.l.l.l.l.l.l.l.l.l.l.l.l.l.l.l.l.l.l.l.l.l.l.l.l.l.l.l.l.l.l.l.l.l.l.l.l.l.l.l.l.l.l.l.l.l.",
"l.l.l.l.l.l.l.l.l.l.l.l.l.l.l.l.l.l.l.l.l.l.l.l.l.l.l.l.l.l.l.l.l.l.l.l.l.l.l.l.l.l.l.l.l.l.l.l.",
"l.l.l.l.l.l.l.l.l.l.l.l.l.l.l.l.l.l.l.l.l.l.l.l.l.l.l.l.l.l.l.l.l.l.l.l.l.l.l.l.l.l.l.l.l.l.l.l.",
"l.l.l.l.l.l.l.l.l.l.l.l.l.l.l.l.l.l.l.l.l.l.l.l.l.l.l.l.l.l.l.l.l.l.l.l.l.l.l.l.l.l.l.l.l.l.l.l.",
"l.l.l.l.l.l.l.l.l.l.l.l.l.l.l.l.l.l.l.l.l.l.l.l.l.l.l.l.l.l.l.l.l.l.l.l.l.l.l.l.l.l.l.l.l.l.l.l.",
"l.l.l.l.l.l.l.l.l.l.l.l.l.l.l.l.l.l.l.l.l.l.l.l.l.l.l.l.l.l.l.l.l.l.l.l.l.l.l.l.l.l.l.l.l.l.l.l.",
"l.l.l.l.l.l.l.l.l.l.l.l.l.l.l.l.l.l.l.l.l.l.l.l.l.l.l.l.l.l.l.l.l.l.l.l.l.l.l.l.l.l.l.l.l.l.l.l.",
"l.l.l.l.l.l.l.l.l.l.l.l.l.l.l.l.l.l.l.l.l.l.l.l.l.l.l.l.l.l.l.l.l.l.l.l.l.l.l.l.l.l.l.l.l.l.l.l.",
"l.l.l.l.l.l.l.l.l.l.l.l.l.l.l.l.l.l.l.l.l.l.l.l.l.l.l.l.l.l.l.l.l.l.l.l.l.l.l.l.l.l.l.l.l.l.l.l."
};
