/* XPM */
static char *xpm_[] = {
/* columns rows colors chars-per-pixel */
"48 48 64 1 ",
"  c #6A4610",
". c #765422",
"X c #775523",
"o c #765726",
"O c #775727",
"+ c #7E5B22",
"@ c #7D5D27",
"# c #775A2B",
"$ c #7D5C28",
"% c #7C6C4E",
"& c #816428",
"* c #81642C",
"= c #816A35",
"- c #816C3B",
"; c #826C3D",
": c #C47003",
"> c #C97302",
", c #C97402",
"< c #826E44",
"1 c #816D46",
"2 c #826E46",
"3 c #826E48",
"4 c #857249",
"5 c #877552",
"6 c #8C7C5B",
"7 c #E98A02",
"8 c #EB8C02",
"9 c #F7AE19",
"0 c #FBB91F",
"q c #FCB91F",
"w c #FBC64D",
"e c #FBC74D",
"r c #FBD369",
"t c #FBD469",
"y c #FAD56F",
"u c None",
"i c None",
"p c #E3CB8B",
"a c #E4CC8E",
"s c #F9D787",
"d c #F9D887",
"f c #FBDA8B",
"g c #FBDC92",
"h c #FCDC92",
"j c #FCDD94",
"k c #FBDE9C",
"l c None",
"z c None",
"x c None",
"c c None",
"v c None",
"b c None",
"n c None",
"m c None",
"M c None",
"N c None",
"B c None",
"V c None",
"C c None",
"Z c None",
"A c None",
"S c None",
"D c None",
"F c None",
/* pixels */
"FFFFFFFFFFFFFFFFFFFFFFFFFFFFFFFFFFFFFFFFFFFFFFFF",
"FFFFFFFFFFFFFFFFFFFFFFFFFFFFFFFFFFFFFFFFFFFFFFFF",
"FFFFFFFFFFFFFFFFFFFFFFFFFFFFFFFFFFFFFFFFFFFFFFFF",
"FFFFFFFFFFFFFFFFFFFFFFFFFFFFFFFFFFFFFFFFFFFFFFFF",
"FFFFFFFFFFFFFFFFFFFFFFFFFFFFFFFFFFFFFFFFFFFFFFFF",
"FFFFFFFFFFFFFFFFFFFFFFFFFFFFFFFFFFFFFFFFFFFFFFFF",
"FFFFFFFFFFFFFFFFFFFFFFFFFFFFFFFFFFFFFFFFFFFFFFFF",
"FFFFFFFFFFFFFFFFFFFFFFFFFFFFFFFFFFFFFFFFFFFFFFFF",
"FFFFFFFFFFFFFFFFFFFFFFFFFFFFFFFFFFFFFFFFFFFFFFFF",
"FFFFFFFFFFFFFFFFFFFFFFFFFFFFFFFFFFFFFFFFFFFFFFFF",
"FFFFFFFFFFFFFFFFFFFFFFFFFFFFFFFFFFFFFFFFFFFFFFFF",
"FFFFFFFFFFFFFFFFFFFFFFFDDFFFFFFFFFFFFFFFFFFFFFFF",
"FFFFFFFFFFFFFFFFFFFFFFDBNDFDFFFFFFFFFFFFFFFFFFFF",
"FFFFFFFFFFFFFFFFFFFFDZz%%lCDFFFFFFFFFFFFFFFFFFFF",
"FFFFFFFFFFFFFFFFFFFFDb6ap5cDFFFFFFFFFFFFFFFFFFFF",
"FFFFFFFFFFFFFFFFFFFFDb4sd<xDFFFFFFFFFFFFFFFFFFFF",
"FFFFFFFFFFFFFFFFFFFFZc<rr%bDAFFFFFFFFFFFFFFFFFFF",
"FFFFFFFFFFFFFFFFFFFFDc%fd-xADDFFFFFFFFFFFFFFFFFF",
"FFFFFFFFFFFFFFFFFFFFDc3gf2bAFFFFFFFFFFFFFFFFFFFF",
"FFFFFFFFFFFFFFFFFFFFDc;tt-xAFFFFFFFFFFFFFFFFFFFF",
"FFFFFFFFFFFFFFFFFFFFDb;tr-xAFFFFFFFFFFFFFFFFFFFF",
"FFFFFFFFFFFFFFFFFFFFDc;tr-xDFFFFFFFFFFFFFFFFFFFF",
"FFFFFFFFFFFFFFFFFFFFDc<yy-bCFFFFFFFFFFFFFFFFFFFF",
"FFFFFFFFFFFFFFFFFFFFDx<gj<xDFFFFFFFFFFFFFFFFFFFF",
"FFFFFFFFFFFFFFFFFFFFFc4kk3xZDFFFFFFFFFFFFFFFFFFF",
"FFFFFFFFFFFFFFFFFFFFFm$ew=xDDFFFFFFFFFFFFFFFFFFF",
"FFFFFFFFFFFFFFFFFFFFFc*qq&bDFFFFFFFFFFFFFFFFFFFF",
"FFFFFFFFFFFFFFFFFFFFFc*99&xDFFFFFFFFFFFFFFFFFFFF",
"FFFFFFFFFFFFFFFFFFFFDc$87+xDFFFFFFFFFFFFFFFFFFFF",
"FFFFFFFFFFFFFFFFFFFFDc$77+xCFFFFFFFFFFFFFFFFFFFF",
"FFFFFFFFFFFFFFFFFFFFDc$77+cDFFFFFFFFFFFFFFFFFFFF",
"FFFFFFFFFFFFFFFFFFFFDbO,>XcDFFFFFFFFFFFFFFFFFFFF",
"FFFFFFFFFFFFFFFFFFFFDc#::.xFFFFFFFFFFFFFFFFFFFFF",
"FFFFFFFFFFFFFFFFFFFFFc#::oxDFFFFFFFFFFFFFFFFFFFF",
"FFFFFFFFFFFFFFFFFFFFFMi  uMSFFFFFFFFFFFFFFFFFFFF",
"FFFFFFFFFFFFFFFFFFFFDFVccVFFFFFFFFFFFFFFFFFFFFFF",
"FFFFFFFFFFFFFFFFFFFFFFFFFFFFFFFFFFFFFFFFFFFFFFFF",
"FFFFFFFFFFFFFFFFFFFFFFFFFFFFFFFFFFFFFFFFFFFFFFFF",
"FFFFFFFFFFFFFFFFFFFFFFFFFFFFFFFFFFFFFFFFFFFFFFFF",
"FFFFFFFFFFFFFFFFFFFFFFFFFFFFFFFFFFFFFFFFFFFFFFFF",
"FFFFFFFFFFFFFFFFFFFFFFFFFFFFFFFFFFFFFFFFFFFFFFFF",
"FFFFFFFFFFFFFFFFFFFFFFFFFFFFFFFFFFFFFFFFFFFFFFFF",
"FFFFFFFFFFFFFFFFFFFFFFFFFFFFFFFFFFFFFFFFFFFFFFFF",
"FFFFFFFFFFFFFFFFFFFFFFFFFFFFFFFFFFFFFFFFFFFFFFFF",
"FFFFFFFFFFFFFFFFFFFFFFFFFFFFFFFFFFFFFFFFFFFFFFFF",
"FFFFFFFFFFFFFFFFFFFFFFFFFFFFFFFFFFFFFFFFFFFFFFFF",
"FFFFFFFFFFFFFFFFFFFFFFFFFFFFFFFFFFFFFFFFFFFFFFFF",
"FFFFFFFFFFFFFFFFFFFFFFFFFFFFFFFFFFFFFFFFFFFFFFFF"
};
