/* XPM */
static char *xpm_[] = {
/* columns rows colors chars-per-pixel */
"48 48 139 2 ",
"   c #513B0F",
".  c #684403",
"X  c #65420E",
"o  c #765414",
"O  c #6E5722",
"+  c #705832",
"@  c #77612D",
"#  c #6F6043",
"$  c #766746",
"%  c #796A4A",
"&  c #824F01",
"*  c #885504",
"=  c #9E6206",
"-  c #94660A",
";  c #946112",
":  c #976A11",
">  c #996A12",
",  c #AE6506",
"<  c #A7740C",
"1  c #AA750E",
"2  c #B37C0F",
"3  c #A57513",
"4  c #876D2E",
"5  c #9B7A2C",
"6  c #886632",
"7  c #8E7434",
"8  c #C87202",
"9  c #D37F03",
"0  c #866C46",
"q  c #837042",
"w  c #8E7842",
"e  c #937E4A",
"r  c #837556",
"t  c #847659",
"y  c #877A5E",
"u  c #947950",
"i  c #887C63",
"p  c #BF901E",
"a  c #AE8421",
"s  c #AB822C",
"d  c #BE993D",
"f  c #D9950F",
"g  c #C18611",
"h  c #CC8B12",
"j  c #DE9B15",
"k  c #E28705",
"l  c #F29707",
"z  c #F19709",
"x  c #F49F0D",
"c  c #F19B12",
"v  c #F09E1B",
"b  c #D6A31E",
"n  c #F8A40F",
"m  c #FBA710",
"M  c #F6A817",
"N  c #FCAB13",
"B  c #F3A418",
"V  c #F4AB1D",
"C  c #FAAC19",
"Z  c #F7B21A",
"A  c #FCB51B",
"S  c #FCB91E",
"D  c #DEA325",
"F  c #DFA937",
"G  c #EEA122",
"H  c #F3AD23",
"J  c #F3A928",
"K  c #F3B626",
"L  c #FAB824",
"P  c #F5B92D",
"I  c #FBBD2D",
"U  c #EDBB3A",
"Y  c #F6B334",
"T  c #F7BA35",
"R  c #FABD30",
"E  c #F5B93D",
"W  c #FCC235",
"Q  c #FBC23A",
"!  c #FDCA3F",
"~  c #968457",
"^  c #A48B42",
"/  c #A48B48",
"(  c #B29746",
")  c #A99157",
"_  c #BFA24F",
"`  c #988B6A",
"'  c #9F9174",
"]  c #BCA56B",
"[  c #BEA872",
"{  c #C1A24C",
"}  c #D6AF47",
"|  c #D9AF46",
" . c #D2AE4C",
".. c #DEB943",
"X. c #D8BA4F",
"o. c #C5A951",
"O. c #D7B959",
"+. c #F4B643",
"@. c #F8BD42",
"#. c #E2BF52",
"$. c #F7C241",
"%. c #FBC543",
"&. c #FDCA41",
"*. c #FBC64D",
"=. c #FBC84C",
"-. c #FCC850",
";. c #FBCD5B",
":. c #FDD157",
">. c #D7C07F",
",. c #E3C160",
"<. c #9D9382",
"1. c #A69B86",
"2. c #A8A08E",
"3. c None",
"4. c #AFA798",
"5. c #B3A995",
"6. c #B7AD9B",
"7. c None",
"8. c #BFBAB0",
"9. c None",
"0. c #D7C286",
"q. c #EBD586",
"w. c #F7E08B",
"e. c None",
"r. c None",
"t. c None",
"y. c None",
"u. c None",
"i. c None",
"p. c None",
"a. c None",
"s. c None",
"d. c None",
"f. c None",
"g. c None",
"h. c None",
"j. c None",
"k. c None",
"l. c None",
/* pixels */
"l.l.l.l.l.l.l.l.l.l.l.l.l.l.l.l.l.l.l.l.l.l.l.l.l.l.l.l.l.l.l.l.l.l.l.l.l.l.l.l.l.l.l.l.l.l.l.l.",
"l.l.l.l.l.l.l.l.l.l.l.l.l.l.l.l.l.l.l.l.l.l.l.l.l.l.l.l.l.l.l.l.l.l.l.l.l.l.l.l.l.l.l.l.l.l.l.l.",
"l.l.l.l.l.l.l.l.l.l.l.l.l.l.l.l.l.l.l.l.l.l.l.l.l.l.l.l.l.l.l.l.l.l.l.l.l.l.l.l.l.l.l.l.l.l.l.l.",
"l.l.l.l.l.l.l.l.l.l.l.l.l.l.l.l.l.l.l.l.l.l.l.l.l.l.l.l.l.l.l.l.l.l.l.l.l.l.l.l.l.l.l.l.l.l.l.l.",
"l.l.l.l.l.l.l.l.l.l.l.l.l.l.l.l.l.l.l.l.l.l.l.l.l.l.l.l.l.l.l.l.l.l.l.l.l.l.l.l.l.l.l.l.l.l.l.l.",
"l.l.l.l.l.l.l.l.l.l.l.l.l.l.l.l.l.l.l.l.l.l.l.l.l.l.l.l.l.l.l.l.l.l.l.l.l.l.l.l.l.l.l.l.l.l.l.l.",
"l.l.l.l.l.l.l.l.l.l.l.l.l.l.l.l.l.l.l.l.l.l.l.l.l.l.l.l.l.l.l.l.l.l.l.l.l.l.l.l.l.l.l.l.l.l.l.l.",
"l.l.l.l.l.l.l.l.l.l.l.l.l.l.l.l.l.l.l.l.l.l.l.l.l.l.l.l.l.l.l.l.l.l.l.l.l.l.l.l.l.l.l.l.l.l.l.l.",
"l.l.l.l.l.l.l.l.l.l.l.l.l.l.l.l.l.l.l.l.l.l.l.l.l.l.l.l.l.l.l.l.l.l.l.l.l.l.l.l.l.l.l.l.l.l.l.l.",
"l.l.l.l.l.l.l.l.l.l.l.l.l.l.l.l.l.l.l.l.l.l.l.l.l.l.l.l.l.l.l.l.l.l.l.l.l.l.l.l.l.l.l.l.l.l.l.l.",
"l.l.l.l.l.l.l.l.l.l.l.l.l.l.l.l.l.l.l.l.l.l.l.l.l.l.l.l.l.l.l.l.l.l.l.l.l.l.l.l.l.l.l.l.l.l.l.l.",
"l.l.l.l.l.l.l.l.l.l.l.l.l.l.l.l.l.l.l.l.l.l.k.k.k.k.l.l.l.l.l.l.l.l.l.l.l.l.l.l.l.l.l.l.l.l.l.l.",
"l.l.l.l.l.l.l.l.l.l.l.l.l.l.l.l.l.l.l.l.l.k.h.g.g.h.h.k.l.l.l.l.l.l.l.l.l.l.l.l.l.l.l.l.l.l.l.l.",
"l.l.l.l.l.l.l.l.l.l.l.l.l.l.l.l.l.l.l.k.h.t.% % # % <.d.k.l.l.l.l.l.l.l.l.l.l.l.l.l.l.l.l.l.l.l.",
"l.l.l.l.l.l.l.l.l.l.l.l.l.l.l.l.l.l.l.k.r.e #.#.4 ] ] 1.f.l.l.l.l.l.l.l.l.l.l.l.l.l.l.l.l.l.l.l.",
"l.l.l.l.l.l.l.l.l.l.l.l.l.l.l.l.l.l.l.l.$ X.S I ..O w.e 8.k.l.l.l.l.l.l.l.l.l.l.l.l.l.l.l.l.l.l.",
"l.l.l.l.l.l.l.l.l.l.l.l.l.l.l.l.l.k.j.7./ U W &.K 3 ( o.` d.l.l.l.l.l.l.l.l.l.l.l.l.l.l.l.l.l.l.",
"l.l.l.l.l.l.l.l.l.l.l.l.l.l.l.l.l.k.g.i  .W E V S f @ q.q y.k.l.l.l.l.l.l.l.l.l.l.l.l.l.l.l.l.l.",
"l.l.l.l.l.l.l.l.l.l.l.l.l.l.l.l.k.k.4.^ %.@.J Y C Z 1 ) 0.% s.l.l.l.l.l.l.l.l.l.l.l.l.l.l.l.l.l.",
"l.l.l.l.l.l.l.l.l.l.l.l.l.l.l.l.l.d.' { =.c N %.B Z h 5 ,.w e.k.l.l.l.l.l.l.l.l.l.l.l.l.l.l.l.l.",
"l.l.l.l.l.l.l.l.l.l.l.l.l.l.l.l.l.e.7 :.V x A W Y M A - { O.t k.l.l.l.l.l.l.l.l.l.l.l.l.l.l.l.l.",
"l.l.l.l.l.l.l.l.l.l.l.l.l.l.l.l.l.e.7 ! l m S Q ;.x A - { O.r k.j.l.l.l.l.l.l.l.l.l.l.l.l.l.l.l.",
"l.l.l.l.l.l.l.l.l.l.l.l.l.l.l.l.l.e.7 &.z m Q %.-.c S - { O.t j.l.l.l.l.l.l.l.l.l.l.l.l.l.l.l.l.",
"l.l.l.l.l.l.l.l.l.l.l.l.l.l.l.l.l.e.7 &.z N %.W =.c S - ] >.y j.l.l.l.l.l.l.l.l.l.l.l.l.l.l.l.l.",
"l.l.l.l.l.l.l.l.l.l.l.l.l.l.l.l.l.e.7 &.l C W S =.c A - [ 0.i h.l.l.l.l.l.l.l.l.l.l.l.l.l.l.l.l.",
"l.l.l.l.l.l.l.l.l.l.l.l.l.l.l.l.l.e.7 &.z m S S *.c L > d } y j.j.l.l.l.l.l.l.l.l.l.l.l.l.l.l.l.",
"l.l.l.l.l.l.l.l.l.l.l.l.l.l.l.l.l.e.7 &.z m S S *.v S > p b t j.l.l.l.l.l.l.l.l.l.l.l.l.l.l.l.l.",
"l.l.l.l.l.l.l.l.l.l.l.l.l.l.l.l.l.e.7 &.x m S L $.G I : p b r j.l.l.l.l.l.l.l.l.l.l.l.l.l.l.l.l.",
"l.l.l.l.l.l.l.l.l.l.l.l.l.l.l.l.l.u.~ F L z N =.G E F : h a 3.k.l.l.l.l.l.l.l.l.l.l.l.l.l.l.l.l.",
"l.l.l.l.l.l.l.l.l.l.l.l.l.l.l.l.l.k.2./ R n H +.E T 2 = k + s.k.l.l.l.l.l.l.l.l.l.l.l.l.l.l.l.l.",
"l.l.l.l.l.l.l.l.l.l.l.l.l.l.l.l.l.k.a.~ | L H +.E j * 9 ; 9.h.k.l.l.l.l.l.l.l.l.l.l.l.l.l.l.l.l.",
"l.l.l.l.l.l.l.l.l.l.l.l.l.l.l.l.l.k.h.<._ P $.%.L g & 9 6 a.k.k.l.l.l.l.l.l.l.l.l.l.l.l.l.l.l.l.",
"l.l.l.l.l.l.l.l.l.l.l.l.l.l.l.l.l.l.k.h.$ D $.L b . 8 * 7.j.l.l.l.l.l.l.l.l.l.l.l.l.l.l.l.l.l.l.",
"l.l.l.l.l.l.l.l.l.l.l.l.l.l.l.l.l.l.l.l.5.s V V < * , u p.l.l.l.l.l.l.l.l.l.l.l.l.l.l.l.l.l.l.l.",
"l.l.l.l.l.l.l.l.l.l.l.l.l.l.l.l.l.l.l.k.g.6.o o   X 0 i.j.l.l.l.l.l.l.l.l.l.l.l.l.l.l.l.l.l.l.l.",
"l.l.l.l.l.l.l.l.l.l.l.l.l.l.l.l.l.l.l.l.k.g.p.p.i.i.s.j.l.l.l.l.l.l.l.l.l.l.l.l.l.l.l.l.l.l.l.l.",
"l.l.l.l.l.l.l.l.l.l.l.l.l.l.l.l.l.l.l.l.l.l.k.k.j.l.l.l.l.l.l.l.l.l.l.l.l.l.l.l.l.l.l.l.l.l.l.l.",
"l.l.l.l.l.l.l.l.l.l.l.l.l.l.l.l.l.l.l.l.l.l.l.l.l.l.l.l.l.l.l.l.l.l.l.l.l.l.l.l.l.l.l.l.l.l.l.l.",
"l.l.l.l.l.l.l.l.l.l.l.l.l.l.l.l.l.l.l.l.l.l.l.l.l.l.l.l.l.l.l.l.l.l.l.l.l.l.l.l.l.l.l.l.l.l.l.l.",
"l.l.l.l.l.l.l.l.l.l.l.l.l.l.l.l.l.l.l.l.l.l.l.l.l.l.l.l.l.l.l.l.l.l.l.l.l.l.l.l.l.l.l.l.l.l.l.l.",
"l.l.l.l.l.l.l.l.l.l.l.l.l.l.l.l.l.l.l.l.l.l.l.l.l.l.l.l.l.l.l.l.l.l.l.l.l.l.l.l.l.l.l.l.l.l.l.l.",
"l.l.l.l.l.l.l.l.l.l.l.l.l.l.l.l.l.l.l.l.l.l.l.l.l.l.l.l.l.l.l.l.l.l.l.l.l.l.l.l.l.l.l.l.l.l.l.l.",
"l.l.l.l.l.l.l.l.l.l.l.l.l.l.l.l.l.l.l.l.l.l.l.l.l.l.l.l.l.l.l.l.l.l.l.l.l.l.l.l.l.l.l.l.l.l.l.l.",
"l.l.l.l.l.l.l.l.l.l.l.l.l.l.l.l.l.l.l.l.l.l.l.l.l.l.l.l.l.l.l.l.l.l.l.l.l.l.l.l.l.l.l.l.l.l.l.l.",
"l.l.l.l.l.l.l.l.l.l.l.l.l.l.l.l.l.l.l.l.l.l.l.l.l.l.l.l.l.l.l.l.l.l.l.l.l.l.l.l.l.l.l.l.l.l.l.l.",
"l.l.l.l.l.l.l.l.l.l.l.l.l.l.l.l.l.l.l.l.l.l.l.l.l.l.l.l.l.l.l.l.l.l.l.l.l.l.l.l.l.l.l.l.l.l.l.l.",
"l.l.l.l.l.l.l.l.l.l.l.l.l.l.l.l.l.l.l.l.l.l.l.l.l.l.l.l.l.l.l.l.l.l.l.l.l.l.l.l.l.l.l.l.l.l.l.l.",
"l.l.l.l.l.l.l.l.l.l.l.l.l.l.l.l.l.l.l.l.l.l.l.l.l.l.l.l.l.l.l.l.l.l.l.l.l.l.l.l.l.l.l.l.l.l.l.l."
};
