/* XPM */
static char *xpm_[] = {
/* columns rows colors chars-per-pixel */
"48 48 142 2 ",
"   c #4D360C",
".  c #664605",
"X  c #74520C",
"o  c #6E4F10",
"O  c #6E541C",
"+  c #745211",
"@  c #71561A",
"#  c #715A2A",
"$  c #705D32",
"%  c #7D6127",
"&  c #6E5F41",
"*  c #7A6945",
"=  c #756649",
"-  c #796A4E",
";  c #835A07",
":  c #825009",
">  c #88530A",
",  c #8F5F08",
"<  c #8D670F",
"1  c #936009",
"2  c #896718",
"3  c #926611",
"4  c #906B1F",
"5  c #99711C",
"6  c #A36404",
"7  c #A9740E",
"8  c #BB720B",
"9  c #B67F0C",
"0  c #A57C15",
"q  c #886E32",
"w  c #8D7134",
"e  c #9B7831",
"r  c #967C3B",
"t  c #CA7905",
"y  c #8A7443",
"u  c #8E7C42",
"i  c #987F47",
"p  c #8D7655",
"a  c #907B5A",
"s  c #AF801A",
"d  c #AC8D3E",
"f  c #CB8C0E",
"g  c #D38D0E",
"h  c #DF9D13",
"j  c #F59C0B",
"k  c #E49F12",
"l  c #F29C13",
"z  c #F5A00E",
"x  c #FAA40F",
"c  c #E6A113",
"v  c #E8A212",
"b  c #E0A81C",
"n  c #E7A91C",
"m  c #F3A215",
"M  c #FBA610",
"N  c #F6A914",
"B  c #FAAC14",
"V  c #F2A21F",
"C  c #F7AD19",
"Z  c #F8AD1A",
"A  c #EFB51E",
"S  c #FDB117",
"D  c #FCB41B",
"F  c #FDB91E",
"G  c #E8AE28",
"H  c #F3A421",
"J  c #F5AC22",
"K  c #F5B223",
"L  c #FAB424",
"P  c #FCBB25",
"I  c #F4B428",
"U  c #FBBC29",
"Y  c #F3AD33",
"T  c #E0B23D",
"R  c #F5B033",
"E  c #F5BC35",
"W  c #F6B339",
"Q  c #FABC3C",
"!  c #FDC235",
"~  c #FCC43B",
"^  c #8F805C",
"/  c #978355",
"(  c #9B8653",
")  c #A58D44",
"_  c #B19341",
"`  c #B1944A",
"'  c #AD9756",
"]  c #BAA047",
"[  c #8E8269",
"{  c #9A8966",
"}  c #8F8372",
"|  c #968A76",
" . c #AF9C68",
".. c #BFAC6E",
"X. c #CCA84A",
"o. c #D1AF4C",
"O. c #CDAD52",
"+. c #E2BD4A",
"@. c #F8BE48",
"#. c #E4BE52",
"$. c #E8BE52",
"%. c #CDB471",
"&. c #F5C443",
"*. c #FCC644",
"=. c #FCC749",
"-. c #FCC849",
";. c #EAC456",
":. c #E4C25C",
">. c #EEC95F",
",. c #FDCC53",
"<. c #FBCD5D",
"1. c #DBC177",
"2. c #EFD067",
"3. c #FDD363",
"4. c #A79C85",
"5. c #ABA18F",
"6. c #ACA392",
"7. c #B1A796",
"8. c #B1A99B",
"9. c #B8B1A5",
"0. c #BEB7A9",
"q. c #EED78D",
"w. c #EED995",
"e. c None",
"r. c None",
"t. c None",
"y. c None",
"u. c None",
"i. c None",
"p. c None",
"a. c None",
"s. c None",
"d. c None",
"f. c None",
"g. c None",
"h. c None",
"j. c None",
"k. c None",
"l. c None",
"z. c None",
"x. c None",
"c. c None",
/* pixels */
"c.c.c.c.c.c.c.c.c.c.c.c.c.c.c.c.c.c.c.c.c.c.c.c.c.c.c.c.c.c.c.c.c.c.c.c.c.c.c.c.c.c.c.c.c.c.c.c.",
"c.c.c.c.c.c.c.c.c.c.c.c.c.c.c.c.c.c.c.c.c.c.c.c.c.c.c.c.c.c.c.c.c.c.c.c.c.c.c.c.c.c.c.c.c.c.c.c.",
"c.c.c.c.c.c.c.c.c.c.c.c.c.c.c.c.c.c.c.c.c.c.c.c.c.c.c.c.c.c.c.c.c.c.c.c.c.c.c.c.c.c.c.c.c.c.c.c.",
"c.c.c.c.c.c.c.c.c.c.c.c.c.c.c.c.c.c.c.c.c.c.c.c.c.c.c.c.c.c.c.c.c.c.c.c.c.c.c.c.c.c.c.c.c.c.c.c.",
"c.c.c.c.c.c.c.c.c.c.c.c.c.c.c.c.c.c.c.c.c.c.c.c.c.c.c.c.c.c.c.c.c.c.c.c.c.c.c.c.c.c.c.c.c.c.c.c.",
"c.c.c.c.c.c.c.c.c.c.c.c.c.c.c.c.c.c.c.c.c.c.c.c.c.c.c.c.c.c.c.c.c.c.c.c.c.c.c.c.c.c.c.c.c.c.c.c.",
"c.c.c.c.c.c.c.c.c.c.c.c.c.c.c.c.c.c.c.c.c.c.c.c.c.c.c.c.c.c.c.c.c.c.c.c.c.c.c.c.c.c.c.c.c.c.c.c.",
"c.c.c.c.c.c.c.c.c.c.c.c.c.c.c.c.c.c.c.c.c.c.c.c.c.c.c.c.c.c.c.c.c.c.c.c.c.c.c.c.c.c.c.c.c.c.c.c.",
"c.c.c.c.c.c.c.c.c.c.c.c.c.c.c.c.c.c.c.c.c.c.c.c.c.c.c.c.c.c.c.c.c.c.c.c.c.c.c.c.c.c.c.c.c.c.c.c.",
"c.c.c.c.c.c.c.c.c.c.c.c.c.c.c.c.c.c.c.c.c.c.c.c.c.c.c.c.c.c.c.c.c.c.c.c.c.c.c.c.c.c.c.c.c.c.c.c.",
"c.c.c.c.c.c.c.c.c.c.c.c.c.c.c.c.c.c.c.c.c.c.c.c.c.c.c.c.c.c.c.c.c.c.c.c.c.c.c.c.c.c.c.c.c.c.c.c.",
"c.c.c.c.c.c.c.c.c.c.c.c.c.c.c.c.c.c.c.c.c.c.c.c.x.x.c.c.c.c.c.c.c.c.c.c.c.c.c.c.c.c.c.c.c.c.c.c.",
"c.c.c.c.c.c.c.c.c.c.c.c.c.c.c.c.c.c.c.c.k.k.l.l.l.z.z.c.c.c.c.c.c.c.c.c.c.c.c.c.c.c.c.c.c.c.c.c.",
"c.c.c.c.c.c.c.c.c.c.c.c.c.c.c.c.c.c.l.s.^ * * * = & 4.k.x.c.c.c.c.c.c.c.c.c.c.c.c.c.c.c.c.c.c.c.",
"c.c.c.c.c.c.c.c.c.c.c.c.c.c.c.c.c.x.s.^ o.:.:.:.o.% ( 8.k.c.c.c.c.c.c.c.c.c.c.c.c.c.c.c.c.c.c.c.",
"c.c.c.c.c.c.c.c.c.c.c.c.c.c.c.c.c.c.} ] I D U *.P 9 u ' 5.l.x.c.c.c.c.c.c.c.c.c.c.c.c.c.c.c.c.c.",
"c.c.c.c.c.c.c.c.c.c.c.c.c.c.c.c.l.u./ T F U *.U F h 5 O.` 6.j.c.c.c.c.c.c.c.c.c.c.c.c.c.c.c.c.c.",
"c.c.c.c.c.c.c.c.c.c.c.c.c.c.c.c.p./ T ! D l l j D F k 4 1. .6.c.c.c.c.c.c.c.c.c.c.c.c.c.c.c.c.c.",
"c.c.c.c.c.c.c.c.c.c.c.c.c.c.c.z.0.r ~ D j x x Q H D S 3 ..%.[ j.c.c.c.c.c.c.c.c.c.c.c.c.c.c.c.c.",
"c.c.c.c.c.c.c.c.c.c.c.c.c.c.x.l.$ +.S z B F F P &.J L b + 2.) 9.x.c.c.c.c.c.c.c.c.c.c.c.c.c.c.c.",
"c.c.c.c.c.c.c.c.c.c.c.c.c.c.l.8._ ~ z x D D D F P @.Y E 7 _ O.{ s.x.x.c.c.c.c.c.c.c.c.c.c.c.c.c.",
"c.c.c.c.c.c.c.c.c.c.c.c.c.z.h.- ;.A j B F F F F U <.W J c O 2.q t.x.x.c.c.c.c.c.c.c.c.c.c.c.c.c.",
"c.c.c.c.c.c.c.c.c.c.c.c.c.x.h.= #.W j D F F F P ,.3.W N k # q.y t.x.x.c.c.c.c.c.c.c.c.c.c.c.c.c.",
"c.c.c.c.c.c.c.c.c.c.c.c.c.c.h.= #.J j D F F P ,.,.~ W N v # w.y t.x.x.c.c.c.c.c.c.c.c.c.c.c.c.c.",
"c.c.c.c.c.c.c.c.c.c.c.c.c.z.h.= $.B j S F U ,.,.P ! W N k @ >.q t.x.x.c.c.c.c.c.c.c.c.c.c.c.c.c.",
"c.c.c.c.c.c.c.c.c.c.c.c.c.c.h.= $.B j Z P ,.,.P F ! W N k X A 2 t.x.x.x.c.c.c.c.c.c.c.c.c.c.c.c.",
"c.c.c.c.c.c.c.c.c.c.c.c.c.c.h.= $.B j D ,.,.P F P ! R N v X A 2 u.x.x.c.c.c.c.c.c.c.c.c.c.c.c.c.",
"c.c.c.c.c.c.c.c.c.c.c.c.c.z.j.[ X.U j M *.P F F P @.m D f < n w i.x.c.c.c.c.c.c.c.c.c.c.c.c.c.c.",
"c.c.c.c.c.c.c.c.c.c.c.c.c.x.c.l.$ ;.J j D F F L ! Y L n . A 0 8.x.x.x.c.c.c.c.c.c.c.c.c.c.c.c.c.",
"c.c.c.c.c.c.c.c.c.c.c.c.c.c.c.z.4.` *.C j L =.*.R L *.s 6 g i p.c.c.c.c.c.c.c.c.c.c.c.c.c.c.c.c.",
"c.c.c.c.c.c.c.c.c.c.c.c.c.c.c.c.y.u &.F B j V V J -.K ; t 8 | x.c.c.c.c.c.c.c.c.c.c.c.c.c.c.c.c.",
"c.c.c.c.c.c.c.c.c.c.c.c.c.c.c.c.l.7.d ! F D F P -.P 7 6 t a d.x.c.c.c.c.c.c.c.c.c.c.c.c.c.c.c.c.",
"c.c.c.c.c.c.c.c.c.c.c.c.c.c.c.c.c.y.( G D P U *.L v 1 > p g.x.c.c.c.c.c.c.c.c.c.c.c.c.c.c.c.c.c.",
"c.c.c.c.c.c.c.c.c.c.c.c.c.c.c.c.c.z.e.e c N I A v , : { d.x.x.c.c.c.c.c.c.c.c.c.c.c.c.c.c.c.c.c.",
"c.c.c.c.c.c.c.c.c.c.c.c.c.c.c.c.c.c.z.r.% + + X o   p f.x.x.c.c.c.c.c.c.c.c.c.c.c.c.c.c.c.c.c.c.",
"c.c.c.c.c.c.c.c.c.c.c.c.c.c.c.c.c.c.c.z.s.a.s.s.a.a.h.x.c.c.c.c.c.c.c.c.c.c.c.c.c.c.c.c.c.c.c.c.",
"c.c.c.c.c.c.c.c.c.c.c.c.c.c.c.c.c.c.c.c.x.c.x.c.x.x.x.c.c.c.c.c.c.c.c.c.c.c.c.c.c.c.c.c.c.c.c.c.",
"c.c.c.c.c.c.c.c.c.c.c.c.c.c.c.c.c.c.c.c.c.c.c.c.c.x.c.c.c.c.c.c.c.c.c.c.c.c.c.c.c.c.c.c.c.c.c.c.",
"c.c.c.c.c.c.c.c.c.c.c.c.c.c.c.c.c.c.c.c.c.c.c.c.c.c.c.c.c.c.c.c.c.c.c.c.c.c.c.c.c.c.c.c.c.c.c.c.",
"c.c.c.c.c.c.c.c.c.c.c.c.c.c.c.c.c.c.c.c.c.c.c.c.c.c.c.c.c.c.c.c.c.c.c.c.c.c.c.c.c.c.c.c.c.c.c.c.",
"c.c.c.c.c.c.c.c.c.c.c.c.c.c.c.c.c.c.c.c.c.c.c.c.c.c.c.c.c.c.c.c.c.c.c.c.c.c.c.c.c.c.c.c.c.c.c.c.",
"c.c.c.c.c.c.c.c.c.c.c.c.c.c.c.c.c.c.c.c.c.c.c.c.c.c.c.c.c.c.c.c.c.c.c.c.c.c.c.c.c.c.c.c.c.c.c.c.",
"c.c.c.c.c.c.c.c.c.c.c.c.c.c.c.c.c.c.c.c.c.c.c.c.c.c.c.c.c.c.c.c.c.c.c.c.c.c.c.c.c.c.c.c.c.c.c.c.",
"c.c.c.c.c.c.c.c.c.c.c.c.c.c.c.c.c.c.c.c.c.c.c.c.c.c.c.c.c.c.c.c.c.c.c.c.c.c.c.c.c.c.c.c.c.c.c.c.",
"c.c.c.c.c.c.c.c.c.c.c.c.c.c.c.c.c.c.c.c.c.c.c.c.c.c.c.c.c.c.c.c.c.c.c.c.c.c.c.c.c.c.c.c.c.c.c.c.",
"c.c.c.c.c.c.c.c.c.c.c.c.c.c.c.c.c.c.c.c.c.c.c.c.c.c.c.c.c.c.c.c.c.c.c.c.c.c.c.c.c.c.c.c.c.c.c.c.",
"c.c.c.c.c.c.c.c.c.c.c.c.c.c.c.c.c.c.c.c.c.c.c.c.c.c.c.c.c.c.c.c.c.c.c.c.c.c.c.c.c.c.c.c.c.c.c.c.",
"c.c.c.c.c.c.c.c.c.c.c.c.c.c.c.c.c.c.c.c.c.c.c.c.c.c.c.c.c.c.c.c.c.c.c.c.c.c.c.c.c.c.c.c.c.c.c.c."
};
