/* XPM */
static char *xpm_[] = {
/* columns rows colors chars-per-pixel */
"48 48 143 2 ",
"   c #513A0E",
".  c #77530F",
"X  c #7E5809",
"o  c #6D5115",
"O  c #765411",
"+  c #7F5D1A",
"@  c #73562B",
"#  c #755F2A",
"$  c #7E6324",
"%  c #7E6633",
"&  c #6F5F41",
"*  c #7B6A47",
"=  c #804D04",
"-  c #925A04",
";  c #9D6308",
":  c #8B6815",
">  c #926915",
",  c #9D6F13",
"<  c #99721F",
"1  c #A6730D",
"2  c #A9750B",
"3  c #B0780C",
"4  c #83692A",
"5  c #997429",
"6  c #8A6633",
"7  c #8B6A32",
"8  c #8F763C",
"9  c #987D37",
"0  c #977D3C",
"q  c #987D39",
"w  c #8E774B",
"e  c #8F7E53",
"r  c #8A7B59",
"t  c #907E5B",
"y  c #8C7E63",
"u  c #8A7F69",
"i  c #BF870F",
"p  c #9D823D",
"a  c #A3883E",
"s  c #DA960F",
"d  c #C18F19",
"f  c #CB9116",
"g  c #D19415",
"h  c #DA9610",
"j  c #EF9407",
"k  c #EE960C",
"l  c #F39B0B",
"z  c #F29E11",
"x  c #F29F18",
"c  c #F9A30F",
"v  c #E7A414",
"b  c #E4A51C",
"n  c #F5A412",
"m  c #F9A712",
"M  c #F4AB16",
"N  c #FAAA14",
"B  c #F3A31D",
"V  c #F5A91D",
"C  c #F8AF1A",
"Z  c #F4B11B",
"A  c #FBB41C",
"S  c #FDB91E",
"D  c #D2A535",
"F  c #E8AC27",
"G  c #F0A123",
"H  c #F5AB21",
"J  c #FBB620",
"K  c #FBB923",
"L  c #F6B42C",
"P  c #FCBD2B",
"I  c #F0AF36",
"U  c #EBB239",
"Y  c #F2B036",
"T  c #F8B636",
"R  c #F7BF32",
"E  c #FABD34",
"W  c #F5B43B",
"Q  c #F7B93C",
"!  c #F9BF39",
"~  c #FBC134",
"^  c #FBC23A",
"/  c #9A8243",
"(  c #98814B",
")  c #998450",
"_  c #9E8759",
"`  c #A28A44",
"'  c #A38B4B",
"]  c #AD9446",
"[  c #B39642",
"{  c #B79845",
"}  c #B49A4A",
"|  c #A78F55",
" . c #938464",
".. c #9A8A63",
"X. c #96886B",
"o. c #9A8E78",
"O. c #A09272",
"+. c #A2967F",
"@. c #B9A777",
"#. c #CAA542",
"$. c #D8B146",
"%. c #DEB449",
"&. c #D2B555",
"*. c #D2B558",
"=. c #E4BC47",
"-. c #F6B943",
";. c #F9BE41",
":. c #F6BF50",
">. c #F3C647",
",. c #FBC442",
"<. c #FCC749",
"1. c #F3C84C",
"2. c #FCC849",
"3. c #E4C154",
"4. c #E3C25B",
"5. c #F8C657",
"6. c #FACC57",
"7. c #F9CF62",
"8. c #FBD165",
"9. c #F8D268",
"0. c None",
"q. c None",
"w. c None",
"e. c None",
"r. c None",
"t. c None",
"y. c None",
"u. c None",
"i. c None",
"p. c None",
"a. c None",
"s. c None",
"d. c None",
"f. c None",
"g. c None",
"h. c None",
"j. c None",
"k. c None",
"l. c None",
"z. c None",
"x. c None",
"c. c None",
"v. c None",
/* pixels */
"v.v.v.v.v.v.v.v.v.v.v.v.v.v.v.v.v.v.v.v.v.v.v.v.v.v.v.v.v.v.v.v.v.v.v.v.v.v.v.v.v.v.v.v.v.v.v.v.",
"v.v.v.v.v.v.v.v.v.v.v.v.v.v.v.v.v.v.v.v.v.v.v.v.v.v.v.v.v.v.v.v.v.v.v.v.v.v.v.v.v.v.v.v.v.v.v.v.",
"v.v.v.v.v.v.v.v.v.v.v.v.v.v.v.v.v.v.v.v.v.v.v.v.v.v.v.v.v.v.v.v.v.v.v.v.v.v.v.v.v.v.v.v.v.v.v.v.",
"v.v.v.v.v.v.v.v.v.v.v.v.v.v.v.v.v.v.v.v.v.v.v.v.v.v.v.v.v.v.v.v.v.v.v.v.v.v.v.v.v.v.v.v.v.v.v.v.",
"v.v.v.v.v.v.v.v.v.v.v.v.v.v.v.v.v.v.v.v.v.v.v.v.v.v.v.v.v.v.v.v.v.v.v.v.v.v.v.v.v.v.v.v.v.v.v.v.",
"v.v.v.v.v.v.v.v.v.v.v.v.v.v.v.v.v.v.v.v.v.v.v.v.v.v.v.v.v.v.v.v.v.v.v.v.v.v.v.v.v.v.v.v.v.v.v.v.",
"v.v.v.v.v.v.v.v.v.v.v.v.v.v.v.v.v.v.v.v.v.v.v.v.v.v.v.v.v.v.v.v.v.v.v.v.v.v.v.v.v.v.v.v.v.v.v.v.",
"v.v.v.v.v.v.v.v.v.v.v.v.v.v.v.v.v.v.v.v.v.v.v.v.v.v.v.v.v.v.v.v.v.v.v.v.v.v.v.v.v.v.v.v.v.v.v.v.",
"v.v.v.v.v.v.v.v.v.v.v.v.v.v.v.v.v.v.v.v.v.v.v.v.v.v.v.v.v.v.v.v.v.v.v.v.v.v.v.v.v.v.v.v.v.v.v.v.",
"v.v.v.v.v.v.v.v.v.v.v.v.v.v.v.v.v.v.v.v.v.v.v.v.v.v.v.v.v.v.v.v.v.v.v.v.v.v.v.v.v.v.v.v.v.v.v.v.",
"v.v.v.v.v.v.v.v.v.v.v.v.v.v.v.v.v.v.v.v.v.v.v.v.v.v.v.v.v.v.v.v.v.v.v.v.v.v.v.v.v.v.v.v.v.v.v.v.",
"v.v.v.v.v.v.v.v.v.v.v.v.v.v.v.v.v.v.v.v.c.v.v.v.c.c.v.v.v.v.v.v.v.v.v.v.v.v.v.v.v.v.v.v.v.v.v.v.",
"v.v.v.v.v.v.v.v.v.v.v.v.v.v.v.v.v.v.v.c.x.l.l.l.l.l.z.v.v.v.v.v.v.v.v.v.v.v.v.v.v.v.v.v.v.v.v.v.",
"v.v.v.v.v.v.v.v.v.v.v.v.v.v.v.v.v.v.x.l.0.* * * * & y j.c.c.v.v.v.v.v.v.v.v.v.v.v.v.v.v.v.v.v.v.",
"v.v.v.v.v.v.v.v.v.v.v.v.v.v.v.v.v.v.l.q.{ 3.4.3.3.4 a X.g.v.v.v.v.v.v.v.v.v.v.v.v.v.v.v.v.v.v.v.",
"v.v.v.v.v.v.v.v.v.v.v.v.v.v.v.v.c.c.w.a P ~ ,.S A v > ` O.h.c.v.v.v.v.v.v.v.v.v.v.v.v.v.v.v.v.v.",
"v.v.v.v.v.v.v.v.v.v.v.v.v.v.v.v.k.w.a ~ E ^ J S S A b < ( +.g.v.v.v.v.v.v.v.v.v.v.v.v.v.v.v.v.v.",
"v.v.v.v.v.v.v.v.v.v.v.v.v.v.v.z.q.{ ~ ~ ,.n l l M J L b 5 '  .k.c.v.v.v.v.v.v.v.v.v.v.v.v.v.v.v.",
"v.v.v.v.v.v.v.v.v.v.v.v.v.v.c.e.] ~ ~ ^ z c m L Y H ^ 9.U + @.u z.v.v.v.v.v.v.v.v.v.v.v.v.v.v.v.",
"v.v.v.v.v.v.v.v.v.v.v.v.v.v.h.O.#.,.^ C c A J K ,.I 5.7.E , | e s.v.v.v.v.v.v.v.v.v.v.v.v.v.v.v.",
"v.v.v.v.v.v.v.v.v.v.v.v.v.c.t.0 6.^ C l A J K P ! 5.G ~ A v o [ o.c.v.v.v.v.v.v.v.v.v.v.v.v.v.v.",
"v.v.v.v.v.v.v.v.v.v.v.v.v.j.t &.^ ~ l m J K K ^ 9.9.-.n S Z i 8 ..a.v.v.v.v.v.v.v.v.v.v.v.v.v.v.",
"v.v.v.v.v.v.v.v.v.v.v.v.v.f.# 1.S l m S K K ^ 8.8.~ ~ W M S g % ( t.v.v.v.v.v.v.v.v.v.v.v.v.v.v.",
"v.v.v.v.v.v.v.v.v.v.v.v.v.d.# >.S l m S S R 7.8.~ K P -.c A s $ q t.v.v.v.v.v.v.v.v.v.v.v.v.v.v.",
"v.v.v.v.v.v.v.v.v.v.v.v.v.d.# >.A j m P ^ 7.8.~ S S P -.m S h $ 9 t.v.v.v.v.v.v.v.v.v.v.v.v.v.v.",
"v.v.v.v.v.v.v.v.v.v.v.v.v.d.$ >.J k N E 8.8.~ S S S P -.n S s $ 9 t.v.v.v.v.v.v.v.v.v.v.v.v.v.v.",
"v.v.v.v.v.v.v.v.v.v.v.v.v.g.* =.P H x T 8.~ A A J P ;.V K ,.f 4 / y.v.v.v.v.v.v.v.v.v.v.v.v.v.v.",
"v.v.v.v.v.v.v.v.v.v.v.v.v.x.r.p ,.! :.z J J S S S 2.B J ,.F O ] o.l.v.v.v.v.v.v.v.v.v.v.v.v.v.v.",
"v.v.v.v.v.v.v.v.v.v.v.v.v.c.s._ %.7.5.z N S S S P ! V ^ ~ i : ) t.c.v.v.v.v.v.v.v.v.v.v.v.v.v.v.",
"v.v.v.v.v.v.v.v.v.v.v.v.v.c.c.e.} 9.! A l ! <.<.Q H ,.~ Z X d r l.c.v.v.v.v.v.v.v.v.v.v.v.v.v.v.",
"v.v.v.v.v.v.v.v.v.v.v.v.v.v.c.g.X.*.P A C B B G V ,.~ Z 2 ; 7 p.c.v.v.v.v.v.v.v.v.v.v.v.v.v.v.v.",
"v.v.v.v.v.v.v.v.v.v.v.v.v.v.c.c.g.r $.K S S S J ,.~ Z 2 - 7 p.c.v.v.v.v.v.v.v.v.v.v.v.v.v.v.v.v.",
"v.v.v.v.v.v.v.v.v.v.v.v.v.v.v.v.x.h. .D S S K ,.~ Z 3 X 6 i.x.v.v.v.v.v.v.v.v.v.v.v.v.v.v.v.v.v.",
"v.v.v.v.v.v.v.v.v.v.v.v.v.v.v.v.v.v.g._ g M Z L Z 1 = 6 u.c.v.v.v.v.v.v.v.v.v.v.v.v.v.v.v.v.v.v.",
"v.v.v.v.v.v.v.v.v.v.v.v.v.v.v.v.v.v.x.f.w . . . O   @ a.x.v.v.v.v.v.v.v.v.v.v.v.v.v.v.v.v.v.v.v.",
"v.v.v.v.v.v.v.v.v.v.v.v.v.v.v.v.v.v.v.v.h.f.d.d.d.d.g.c.v.v.v.v.v.v.v.v.v.v.v.v.v.v.v.v.v.v.v.v.",
"v.v.v.v.v.v.v.v.v.v.v.v.v.v.v.v.v.v.v.v.c.c.v.c.c.c.c.v.v.v.v.v.v.v.v.v.v.v.v.v.v.v.v.v.v.v.v.v.",
"v.v.v.v.v.v.v.v.v.v.v.v.v.v.v.v.v.v.v.v.v.v.v.v.v.v.v.v.v.v.v.v.v.v.v.v.v.v.v.v.v.v.v.v.v.v.v.v.",
"v.v.v.v.v.v.v.v.v.v.v.v.v.v.v.v.v.v.v.v.v.v.v.v.v.v.v.v.v.v.v.v.v.v.v.v.v.v.v.v.v.v.v.v.v.v.v.v.",
"v.v.v.v.v.v.v.v.v.v.v.v.v.v.v.v.v.v.v.v.v.v.v.v.v.v.v.v.v.v.v.v.v.v.v.v.v.v.v.v.v.v.v.v.v.v.v.v.",
"v.v.v.v.v.v.v.v.v.v.v.v.v.v.v.v.v.v.v.v.v.v.v.v.v.v.v.v.v.v.v.v.v.v.v.v.v.v.v.v.v.v.v.v.v.v.v.v.",
"v.v.v.v.v.v.v.v.v.v.v.v.v.v.v.v.v.v.v.v.v.v.v.v.v.v.v.v.v.v.v.v.v.v.v.v.v.v.v.v.v.v.v.v.v.v.v.v.",
"v.v.v.v.v.v.v.v.v.v.v.v.v.v.v.v.v.v.v.v.v.v.v.v.v.v.v.v.v.v.v.v.v.v.v.v.v.v.v.v.v.v.v.v.v.v.v.v.",
"v.v.v.v.v.v.v.v.v.v.v.v.v.v.v.v.v.v.v.v.v.v.v.v.v.v.v.v.v.v.v.v.v.v.v.v.v.v.v.v.v.v.v.v.v.v.v.v.",
"v.v.v.v.v.v.v.v.v.v.v.v.v.v.v.v.v.v.v.v.v.v.v.v.v.v.v.v.v.v.v.v.v.v.v.v.v.v.v.v.v.v.v.v.v.v.v.v.",
"v.v.v.v.v.v.v.v.v.v.v.v.v.v.v.v.v.v.v.v.v.v.v.v.v.v.v.v.v.v.v.v.v.v.v.v.v.v.v.v.v.v.v.v.v.v.v.v.",
"v.v.v.v.v.v.v.v.v.v.v.v.v.v.v.v.v.v.v.v.v.v.v.v.v.v.v.v.v.v.v.v.v.v.v.v.v.v.v.v.v.v.v.v.v.v.v.v.",
"v.v.v.v.v.v.v.v.v.v.v.v.v.v.v.v.v.v.v.v.v.v.v.v.v.v.v.v.v.v.v.v.v.v.v.v.v.v.v.v.v.v.v.v.v.v.v.v."
};
